<?xml version="1.0" encoding="UTF-8" standalone="no"?>
<!DOCTYPE svg PUBLIC "-//W3C//DTD SVG 1.1//EN"
 "http://www.w3.org/Graphics/SVG/1.1/DTD/svg11.dtd">
<!-- Generated by graphviz version 2.47.0 (20210316.0004)
 -->
<!-- Title: dependencies Pages: 1 -->
<svg width="504pt" height="211pt"
 viewBox="0.00 0.00 504.00 211.00" xmlns="http://www.w3.org/2000/svg" xmlns:xlink="http://www.w3.org/1999/xlink">
<g id="graph0" class="graph" transform="scale(1 1) rotate(0) translate(4 207)">
<title>dependencies</title>
<polygon fill="white" stroke="transparent" points="-4,4 -4,-207 500,-207 500,4 -4,4"/>
<text text-anchor="start" x="227.01" y="-42.4" font-family="sans-serif" font-weight="bold" font-size="14.00">Legend</text>
<polygon fill="#ffffb3" stroke="transparent" points="14,-10 14,-30 34,-30 34,-10 14,-10"/>
<text text-anchor="start" x="37.63" y="-15.4" font-family="sans-serif" font-size="14.00"> &#160;Declarations</text>
<polygon fill="#8dd3c7" stroke="transparent" points="127,-10 127,-30 147,-30 147,-10 127,-10"/>
<text text-anchor="start" x="150.73" y="-15.4" font-family="sans-serif" font-size="14.00"> &#160;Module</text>
<polygon fill="#80b1d3" stroke="transparent" points="213,-10 213,-30 233,-30 233,-10 213,-10"/>
<text text-anchor="start" x="236.78" y="-15.4" font-family="sans-serif" font-size="14.00"> &#160;Bootstrap</text>
<polygon fill="#fdb462" stroke="transparent" points="310,-10 310,-30 330,-30 330,-10 310,-10"/>
<text text-anchor="start" x="333.67" y="-15.4" font-family="sans-serif" font-size="14.00"> &#160;Providers</text>
<polygon fill="#fb8072" stroke="transparent" points="406,-10 406,-30 426,-30 426,-10 406,-10"/>
<text text-anchor="start" x="429.73" y="-15.4" font-family="sans-serif" font-size="14.00"> &#160;Exports</text>
<g id="clust1" class="cluster">
<title>cluster_NachhilfeWModule</title>
<polygon fill="none" stroke="black" stroke-dasharray="1,5" points="89,-70 89,-195 407,-195 407,-70 89,-70"/>
</g>
<g id="clust4" class="cluster">
<title>cluster_NachhilfeWModule_imports</title>
<polygon fill="none" stroke="black" points="271,-78 271,-130 399,-130 399,-78 271,-78"/>
</g>
<g id="clust2" class="cluster">
<title>cluster_NachhilfeWModule_declarations</title>
<polygon fill="none" stroke="black" points="97,-78 97,-130 263,-130 263,-78 97,-78"/>
</g>
<!-- NachhilfeWComponent -->
<g id="node1" class="node">
<title>NachhilfeWComponent</title>
<polygon fill="#ffffb3" stroke="black" points="254.74,-122 105.26,-122 105.26,-86 254.74,-86 254.74,-122"/>
<text text-anchor="middle" x="180" y="-99.8" font-family="Times,serif" font-size="14.00">NachhilfeWComponent</text>
</g>
<!-- NachhilfeWModule -->
<g id="node2" class="node">
<title>NachhilfeWModule</title>
<polygon fill="#8dd3c7" stroke="black" points="320.96,-187 317.96,-191 296.96,-191 293.96,-187 193.04,-187 193.04,-151 320.96,-151 320.96,-187"/>
<text text-anchor="middle" x="257" y="-164.8" font-family="Times,serif" font-size="14.00">NachhilfeWModule</text>
</g>
<!-- NachhilfeWComponent&#45;&gt;NachhilfeWModule -->
<g id="edge1" class="edge">
<title>NachhilfeWComponent&#45;&gt;NachhilfeWModule</title>
<path fill="none" stroke="black" d="M223.95,-122.11C223.95,-122.11 223.95,-140.99 223.95,-140.99"/>
<polygon fill="black" stroke="black" points="220.45,-140.99 223.95,-150.99 227.45,-140.99 220.45,-140.99"/>
</g>
<!-- CommonModule -->
<g id="node3" class="node">
<title>CommonModule</title>
<polygon fill="#8dd3c7" stroke="black" points="390.67,-122 387.67,-126 366.67,-126 363.67,-122 279.33,-122 279.33,-86 390.67,-86 390.67,-122"/>
<text text-anchor="middle" x="335" y="-99.8" font-family="Times,serif" font-size="14.00">CommonModule</text>
</g>
<!-- CommonModule&#45;&gt;NachhilfeWModule -->
<g id="edge2" class="edge">
<title>CommonModule&#45;&gt;NachhilfeWModule</title>
<path fill="none" stroke="black" d="M300.07,-122.11C300.07,-122.11 300.07,-140.99 300.07,-140.99"/>
<polygon fill="black" stroke="black" points="296.57,-140.99 300.07,-150.99 303.57,-140.99 296.57,-140.99"/>
</g>
</g>
</svg>
