<?xml version="1.0" encoding="UTF-8" standalone="no"?>
<!DOCTYPE svg PUBLIC "-//W3C//DTD SVG 1.1//EN"
 "http://www.w3.org/Graphics/SVG/1.1/DTD/svg11.dtd">
<!-- Generated by graphviz version 2.47.0 (20210316.0004)
 -->
<!-- Title: dependencies Pages: 1 -->
<svg width="4953pt" height="211pt"
 viewBox="0.00 0.00 4953.00 211.00" xmlns="http://www.w3.org/2000/svg" xmlns:xlink="http://www.w3.org/1999/xlink">
<g id="graph0" class="graph" transform="scale(1 1) rotate(0) translate(4 207)">
<title>dependencies</title>
<polygon fill="white" stroke="transparent" points="-4,4 -4,-207 4949,-207 4949,4 -4,4"/>
<text text-anchor="start" x="2451.51" y="-42.4" font-family="sans-serif" font-weight="bold" font-size="14.00">Legend</text>
<polygon fill="#ffffb3" stroke="transparent" points="2238.5,-10 2238.5,-30 2258.5,-30 2258.5,-10 2238.5,-10"/>
<text text-anchor="start" x="2262.13" y="-15.4" font-family="sans-serif" font-size="14.00"> &#160;Declarations</text>
<polygon fill="#8dd3c7" stroke="transparent" points="2351.5,-10 2351.5,-30 2371.5,-30 2371.5,-10 2351.5,-10"/>
<text text-anchor="start" x="2375.23" y="-15.4" font-family="sans-serif" font-size="14.00"> &#160;Module</text>
<polygon fill="#80b1d3" stroke="transparent" points="2437.5,-10 2437.5,-30 2457.5,-30 2457.5,-10 2437.5,-10"/>
<text text-anchor="start" x="2461.28" y="-15.4" font-family="sans-serif" font-size="14.00"> &#160;Bootstrap</text>
<polygon fill="#fdb462" stroke="transparent" points="2534.5,-10 2534.5,-30 2554.5,-30 2554.5,-10 2534.5,-10"/>
<text text-anchor="start" x="2558.17" y="-15.4" font-family="sans-serif" font-size="14.00"> &#160;Providers</text>
<polygon fill="#fb8072" stroke="transparent" points="2630.5,-10 2630.5,-30 2650.5,-30 2650.5,-10 2630.5,-10"/>
<text text-anchor="start" x="2654.23" y="-15.4" font-family="sans-serif" font-size="14.00"> &#160;Exports</text>
<g id="clust1" class="cluster">
<title>cluster_MaterialModule</title>
<polygon fill="none" stroke="black" stroke-dasharray="1,5" points="8,-70 8,-195 4937,-195 4937,-70 8,-70"/>
</g>
<g id="clust4" class="cluster">
<title>cluster_MaterialModule_exports</title>
<polygon fill="none" stroke="black" points="16,-135 16,-187 4929,-187 4929,-135 16,-135"/>
</g>
<!-- CdkTableModule  -->
<g id="node1" class="node">
<title>CdkTableModule </title>
<polygon fill="#fb8072" stroke="black" points="4921.26,-179 4802.74,-179 4802.74,-143 4921.26,-143 4921.26,-179"/>
<text text-anchor="middle" x="4862" y="-156.8" font-family="Times,serif" font-size="14.00">CdkTableModule </text>
</g>
<!-- MatAutocompleteModule  -->
<g id="node2" class="node">
<title>MatAutocompleteModule </title>
<polygon fill="#fb8072" stroke="black" points="4784.41,-179 4619.59,-179 4619.59,-143 4784.41,-143 4784.41,-179"/>
<text text-anchor="middle" x="4702" y="-156.8" font-family="Times,serif" font-size="14.00">MatAutocompleteModule </text>
</g>
<!-- MatButtonModule  -->
<g id="node3" class="node">
<title>MatButtonModule </title>
<polygon fill="#fb8072" stroke="black" points="4601.72,-179 4478.28,-179 4478.28,-143 4601.72,-143 4601.72,-179"/>
<text text-anchor="middle" x="4540" y="-156.8" font-family="Times,serif" font-size="14.00">MatButtonModule </text>
</g>
<!-- MatButtonToggleModule  -->
<g id="node4" class="node">
<title>MatButtonToggleModule </title>
<polygon fill="#fb8072" stroke="black" points="4459.88,-179 4296.12,-179 4296.12,-143 4459.88,-143 4459.88,-179"/>
<text text-anchor="middle" x="4378" y="-156.8" font-family="Times,serif" font-size="14.00">MatButtonToggleModule </text>
</g>
<!-- MatCardModule  -->
<g id="node5" class="node">
<title>MatCardModule </title>
<polygon fill="#fb8072" stroke="black" points="4278.31,-179 4165.69,-179 4165.69,-143 4278.31,-143 4278.31,-179"/>
<text text-anchor="middle" x="4222" y="-156.8" font-family="Times,serif" font-size="14.00">MatCardModule </text>
</g>
<!-- MatCheckboxModule  -->
<g id="node6" class="node">
<title>MatCheckboxModule </title>
<polygon fill="#fb8072" stroke="black" points="4147.37,-179 4004.63,-179 4004.63,-143 4147.37,-143 4147.37,-179"/>
<text text-anchor="middle" x="4076" y="-156.8" font-family="Times,serif" font-size="14.00">MatCheckboxModule </text>
</g>
<!-- MatChipsModule  -->
<g id="node7" class="node">
<title>MatChipsModule </title>
<polygon fill="#fb8072" stroke="black" points="3987.27,-179 3868.73,-179 3868.73,-143 3987.27,-143 3987.27,-179"/>
<text text-anchor="middle" x="3928" y="-156.8" font-family="Times,serif" font-size="14.00">MatChipsModule </text>
</g>
<!-- MatStepperModule  -->
<g id="node8" class="node">
<title>MatStepperModule </title>
<polygon fill="#fb8072" stroke="black" points="3851.36,-179 3722.64,-179 3722.64,-143 3851.36,-143 3851.36,-179"/>
<text text-anchor="middle" x="3787" y="-156.8" font-family="Times,serif" font-size="14.00">MatStepperModule </text>
</g>
<!-- MatDatepickerModule  -->
<g id="node9" class="node">
<title>MatDatepickerModule </title>
<polygon fill="#fb8072" stroke="black" points="3704.51,-179 3557.49,-179 3557.49,-143 3704.51,-143 3704.51,-179"/>
<text text-anchor="middle" x="3631" y="-156.8" font-family="Times,serif" font-size="14.00">MatDatepickerModule </text>
</g>
<!-- MatDialogModule  -->
<g id="node10" class="node">
<title>MatDialogModule </title>
<polygon fill="#fb8072" stroke="black" points="3539.7,-179 3416.3,-179 3416.3,-143 3539.7,-143 3539.7,-179"/>
<text text-anchor="middle" x="3478" y="-156.8" font-family="Times,serif" font-size="14.00">MatDialogModule </text>
</g>
<!-- MatDividerModule  -->
<g id="node11" class="node">
<title>MatDividerModule </title>
<polygon fill="#fb8072" stroke="black" points="3398.36,-179 3269.64,-179 3269.64,-143 3398.36,-143 3398.36,-179"/>
<text text-anchor="middle" x="3334" y="-156.8" font-family="Times,serif" font-size="14.00">MatDividerModule </text>
</g>
<!-- MatExpansionModule  -->
<g id="node12" class="node">
<title>MatExpansionModule </title>
<polygon fill="#fb8072" stroke="black" points="3251.2,-179 3106.8,-179 3106.8,-143 3251.2,-143 3251.2,-179"/>
<text text-anchor="middle" x="3179" y="-156.8" font-family="Times,serif" font-size="14.00">MatExpansionModule </text>
</g>
<!-- MatGridListModule  -->
<g id="node13" class="node">
<title>MatGridListModule </title>
<polygon fill="#fb8072" stroke="black" points="3088.54,-179 2955.46,-179 2955.46,-143 3088.54,-143 3088.54,-179"/>
<text text-anchor="middle" x="3022" y="-156.8" font-family="Times,serif" font-size="14.00">MatGridListModule </text>
</g>
<!-- MatIconModule  -->
<g id="node14" class="node">
<title>MatIconModule </title>
<polygon fill="#fb8072" stroke="black" points="2937.48,-179 2826.52,-179 2826.52,-143 2937.48,-143 2937.48,-179"/>
<text text-anchor="middle" x="2882" y="-156.8" font-family="Times,serif" font-size="14.00">MatIconModule </text>
</g>
<!-- MatInputModule  -->
<g id="node15" class="node">
<title>MatInputModule </title>
<polygon fill="#fb8072" stroke="black" points="2808.65,-179 2693.35,-179 2693.35,-143 2808.65,-143 2808.65,-179"/>
<text text-anchor="middle" x="2751" y="-156.8" font-family="Times,serif" font-size="14.00">MatInputModule </text>
</g>
<!-- MatListModule  -->
<g id="node16" class="node">
<title>MatListModule </title>
<polygon fill="#fb8072" stroke="black" points="2675.88,-179 2568.12,-179 2568.12,-143 2675.88,-143 2675.88,-179"/>
<text text-anchor="middle" x="2622" y="-156.8" font-family="Times,serif" font-size="14.00">MatListModule </text>
</g>
<!-- MatMenuModule  -->
<g id="node17" class="node">
<title>MatMenuModule </title>
<polygon fill="#fb8072" stroke="black" points="2550.26,-179 2431.74,-179 2431.74,-143 2550.26,-143 2550.26,-179"/>
<text text-anchor="middle" x="2491" y="-156.8" font-family="Times,serif" font-size="14.00">MatMenuModule </text>
</g>
<!-- MatNativeDateModule  -->
<g id="node18" class="node">
<title>MatNativeDateModule </title>
<polygon fill="#fb8072" stroke="black" points="2413.84,-179 2264.16,-179 2264.16,-143 2413.84,-143 2413.84,-179"/>
<text text-anchor="middle" x="2339" y="-156.8" font-family="Times,serif" font-size="14.00">MatNativeDateModule </text>
</g>
<!-- MatPaginatorModule  -->
<g id="node19" class="node">
<title>MatPaginatorModule </title>
<polygon fill="#fb8072" stroke="black" points="2246.75,-179 2107.25,-179 2107.25,-143 2246.75,-143 2246.75,-179"/>
<text text-anchor="middle" x="2177" y="-156.8" font-family="Times,serif" font-size="14.00">MatPaginatorModule </text>
</g>
<!-- MatProgressBarModule  -->
<g id="node20" class="node">
<title>MatProgressBarModule </title>
<polygon fill="#fb8072" stroke="black" points="2089.02,-179 1934.98,-179 1934.98,-143 2089.02,-143 2089.02,-179"/>
<text text-anchor="middle" x="2012" y="-156.8" font-family="Times,serif" font-size="14.00">MatProgressBarModule </text>
</g>
<!-- MatProgressSpinnerModule  -->
<g id="node21" class="node">
<title>MatProgressSpinnerModule </title>
<polygon fill="#fb8072" stroke="black" points="1916.86,-179 1739.14,-179 1739.14,-143 1916.86,-143 1916.86,-179"/>
<text text-anchor="middle" x="1828" y="-156.8" font-family="Times,serif" font-size="14.00">MatProgressSpinnerModule </text>
</g>
<!-- MatRadioModule  -->
<g id="node22" class="node">
<title>MatRadioModule </title>
<polygon fill="#fb8072" stroke="black" points="1721.54,-179 1602.46,-179 1602.46,-143 1721.54,-143 1721.54,-179"/>
<text text-anchor="middle" x="1662" y="-156.8" font-family="Times,serif" font-size="14.00">MatRadioModule </text>
</g>
<!-- MatRippleModule  -->
<g id="node23" class="node">
<title>MatRippleModule </title>
<polygon fill="#fb8072" stroke="black" points="1584.43,-179 1461.57,-179 1461.57,-143 1584.43,-143 1584.43,-179"/>
<text text-anchor="middle" x="1523" y="-156.8" font-family="Times,serif" font-size="14.00">MatRippleModule </text>
</g>
<!-- MatSelectModule  -->
<g id="node24" class="node">
<title>MatSelectModule </title>
<polygon fill="#fb8072" stroke="black" points="1443.81,-179 1324.19,-179 1324.19,-143 1443.81,-143 1443.81,-179"/>
<text text-anchor="middle" x="1384" y="-156.8" font-family="Times,serif" font-size="14.00">MatSelectModule </text>
</g>
<!-- MatSidenavModule  -->
<g id="node25" class="node">
<title>MatSidenavModule </title>
<polygon fill="#fb8072" stroke="black" points="1306.2,-179 1175.8,-179 1175.8,-143 1306.2,-143 1306.2,-179"/>
<text text-anchor="middle" x="1241" y="-156.8" font-family="Times,serif" font-size="14.00">MatSidenavModule </text>
</g>
<!-- MatSliderModule  -->
<g id="node26" class="node">
<title>MatSliderModule </title>
<polygon fill="#fb8072" stroke="black" points="1157.54,-179 1038.46,-179 1038.46,-143 1157.54,-143 1157.54,-179"/>
<text text-anchor="middle" x="1098" y="-156.8" font-family="Times,serif" font-size="14.00">MatSliderModule </text>
</g>
<!-- MatSlideToggleModule  -->
<g id="node27" class="node">
<title>MatSlideToggleModule </title>
<polygon fill="#fb8072" stroke="black" points="1020.04,-179 865.96,-179 865.96,-143 1020.04,-143 1020.04,-179"/>
<text text-anchor="middle" x="943" y="-156.8" font-family="Times,serif" font-size="14.00">MatSlideToggleModule </text>
</g>
<!-- MatSnackBarModule  -->
<g id="node28" class="node">
<title>MatSnackBarModule </title>
<polygon fill="#fb8072" stroke="black" points="848.02,-179 707.98,-179 707.98,-143 848.02,-143 848.02,-179"/>
<text text-anchor="middle" x="778" y="-156.8" font-family="Times,serif" font-size="14.00">MatSnackBarModule </text>
</g>
<!-- MatSortModule  -->
<g id="node29" class="node">
<title>MatSortModule </title>
<polygon fill="#fb8072" stroke="black" points="690.43,-179 581.57,-179 581.57,-143 690.43,-143 690.43,-179"/>
<text text-anchor="middle" x="636" y="-156.8" font-family="Times,serif" font-size="14.00">MatSortModule </text>
</g>
<!-- MatTableModule  -->
<g id="node30" class="node">
<title>MatTableModule </title>
<polygon fill="#fb8072" stroke="black" points="563.97,-179 446.03,-179 446.03,-143 563.97,-143 563.97,-179"/>
<text text-anchor="middle" x="505" y="-156.8" font-family="Times,serif" font-size="14.00">MatTableModule </text>
</g>
<!-- MatTabsModule  -->
<g id="node31" class="node">
<title>MatTabsModule </title>
<polygon fill="#fb8072" stroke="black" points="428.31,-179 315.69,-179 315.69,-143 428.31,-143 428.31,-179"/>
<text text-anchor="middle" x="372" y="-156.8" font-family="Times,serif" font-size="14.00">MatTabsModule </text>
</g>
<!-- MatToolbarModule  -->
<g id="node32" class="node">
<title>MatToolbarModule </title>
<polygon fill="#fb8072" stroke="black" points="297.92,-179 168.08,-179 168.08,-143 297.92,-143 297.92,-179"/>
<text text-anchor="middle" x="233" y="-156.8" font-family="Times,serif" font-size="14.00">MatToolbarModule </text>
</g>
<!-- MatTooltipModule  -->
<g id="node33" class="node">
<title>MatTooltipModule </title>
<polygon fill="#fb8072" stroke="black" points="150.32,-179 23.68,-179 23.68,-143 150.32,-143 150.32,-179"/>
<text text-anchor="middle" x="87" y="-156.8" font-family="Times,serif" font-size="14.00">MatTooltipModule </text>
</g>
<!-- MaterialModule -->
<g id="node34" class="node">
<title>MaterialModule</title>
<polygon fill="#8dd3c7" stroke="black" points="2544.47,-114 2541.47,-118 2520.47,-118 2517.47,-114 2437.53,-114 2437.53,-78 2544.47,-78 2544.47,-114"/>
<text text-anchor="middle" x="2491" y="-91.8" font-family="Times,serif" font-size="14.00">MaterialModule</text>
</g>
<!-- MaterialModule&#45;&gt;CdkTableModule  -->
<g id="edge1" class="edge">
<title>MaterialModule&#45;&gt;CdkTableModule </title>
<path fill="none" stroke="black" stroke-dasharray="5,2" d="M2544.69,-81C2896.85,-81 4862,-81 4862,-81 4862,-81 4862,-132.85 4862,-132.85"/>
<polygon fill="black" stroke="black" points="4858.5,-132.85 4862,-142.85 4865.5,-132.85 4858.5,-132.85"/>
</g>
<!-- MaterialModule&#45;&gt;MatAutocompleteModule  -->
<g id="edge2" class="edge">
<title>MaterialModule&#45;&gt;MatAutocompleteModule </title>
<path fill="none" stroke="black" stroke-dasharray="5,2" d="M2544.56,-83C2882.21,-83 4702,-83 4702,-83 4702,-83 4702,-132.91 4702,-132.91"/>
<polygon fill="black" stroke="black" points="4698.5,-132.91 4702,-142.91 4705.5,-132.91 4698.5,-132.91"/>
</g>
<!-- MaterialModule&#45;&gt;MatButtonModule  -->
<g id="edge3" class="edge">
<title>MaterialModule&#45;&gt;MatButtonModule </title>
<path fill="none" stroke="black" stroke-dasharray="5,2" d="M2544.49,-85C2867.14,-85 4540,-85 4540,-85 4540,-85 4540,-132.99 4540,-132.99"/>
<polygon fill="black" stroke="black" points="4536.5,-132.99 4540,-142.99 4543.5,-132.99 4536.5,-132.99"/>
</g>
<!-- MaterialModule&#45;&gt;MatButtonToggleModule  -->
<g id="edge4" class="edge">
<title>MaterialModule&#45;&gt;MatButtonToggleModule </title>
<path fill="none" stroke="black" stroke-dasharray="5,2" d="M2544.68,-87C2852.35,-87 4378,-87 4378,-87 4378,-87 4378,-132.71 4378,-132.71"/>
<polygon fill="black" stroke="black" points="4374.5,-132.71 4378,-142.71 4381.5,-132.71 4374.5,-132.71"/>
</g>
<!-- MaterialModule&#45;&gt;MatCardModule  -->
<g id="edge5" class="edge">
<title>MaterialModule&#45;&gt;MatCardModule </title>
<path fill="none" stroke="black" stroke-dasharray="5,2" d="M2544.7,-89C2836.88,-89 4222,-89 4222,-89 4222,-89 4222,-132.83 4222,-132.83"/>
<polygon fill="black" stroke="black" points="4218.5,-132.83 4222,-142.83 4225.5,-132.83 4218.5,-132.83"/>
</g>
<!-- MaterialModule&#45;&gt;MatCheckboxModule  -->
<g id="edge6" class="edge">
<title>MaterialModule&#45;&gt;MatCheckboxModule </title>
<path fill="none" stroke="black" stroke-dasharray="5,2" d="M2544.64,-91C2821.51,-91 4076,-91 4076,-91 4076,-91 4076,-132.97 4076,-132.97"/>
<polygon fill="black" stroke="black" points="4072.5,-132.97 4076,-142.97 4079.5,-132.97 4072.5,-132.97"/>
</g>
<!-- MaterialModule&#45;&gt;MatChipsModule  -->
<g id="edge7" class="edge">
<title>MaterialModule&#45;&gt;MatChipsModule </title>
<path fill="none" stroke="black" stroke-dasharray="5,2" d="M2544.71,-93C2805.58,-93 3928,-93 3928,-93 3928,-93 3928,-132.78 3928,-132.78"/>
<polygon fill="black" stroke="black" points="3924.5,-132.78 3928,-142.78 3931.5,-132.78 3924.5,-132.78"/>
</g>
<!-- MaterialModule&#45;&gt;MatStepperModule  -->
<g id="edge8" class="edge">
<title>MaterialModule&#45;&gt;MatStepperModule </title>
<path fill="none" stroke="black" stroke-dasharray="5,2" d="M2544.63,-95C2789.21,-95 3787,-95 3787,-95 3787,-95 3787,-132.97 3787,-132.97"/>
<polygon fill="black" stroke="black" points="3783.5,-132.97 3787,-142.97 3790.5,-132.97 3783.5,-132.97"/>
</g>
<!-- MaterialModule&#45;&gt;MatDatepickerModule  -->
<g id="edge9" class="edge">
<title>MaterialModule&#45;&gt;MatDatepickerModule </title>
<path fill="none" stroke="black" stroke-dasharray="5,2" d="M2544.84,-98C2770.81,-98 3631,-98 3631,-98 3631,-98 3631,-132.78 3631,-132.78"/>
<polygon fill="black" stroke="black" points="3627.5,-132.78 3631,-142.78 3634.5,-132.78 3627.5,-132.78"/>
</g>
<!-- MaterialModule&#45;&gt;MatDialogModule  -->
<g id="edge10" class="edge">
<title>MaterialModule&#45;&gt;MatDialogModule </title>
<path fill="none" stroke="black" stroke-dasharray="5,2" d="M2544.77,-100C2750.73,-100 3478,-100 3478,-100 3478,-100 3478,-132.7 3478,-132.7"/>
<polygon fill="black" stroke="black" points="3474.5,-132.7 3478,-142.7 3481.5,-132.7 3474.5,-132.7"/>
</g>
<!-- MaterialModule&#45;&gt;MatDividerModule  -->
<g id="edge11" class="edge">
<title>MaterialModule&#45;&gt;MatDividerModule </title>
<path fill="none" stroke="black" stroke-dasharray="5,2" d="M2544.69,-102C2730.38,-102 3334,-102 3334,-102 3334,-102 3334,-132.98 3334,-132.98"/>
<polygon fill="black" stroke="black" points="3330.5,-132.98 3334,-142.98 3337.5,-132.98 3330.5,-132.98"/>
</g>
<!-- MaterialModule&#45;&gt;MatExpansionModule  -->
<g id="edge12" class="edge">
<title>MaterialModule&#45;&gt;MatExpansionModule </title>
<path fill="none" stroke="black" stroke-dasharray="5,2" d="M2544.7,-104C2706.62,-104 3179,-104 3179,-104 3179,-104 3179,-132.96 3179,-132.96"/>
<polygon fill="black" stroke="black" points="3175.5,-132.96 3179,-142.96 3182.5,-132.96 3175.5,-132.96"/>
</g>
<!-- MaterialModule&#45;&gt;MatGridListModule  -->
<g id="edge13" class="edge">
<title>MaterialModule&#45;&gt;MatGridListModule </title>
<path fill="none" stroke="black" stroke-dasharray="5,2" d="M2544.84,-106C2679.83,-106 3022,-106 3022,-106 3022,-106 3022,-132.99 3022,-132.99"/>
<polygon fill="black" stroke="black" points="3018.5,-132.99 3022,-142.99 3025.5,-132.99 3018.5,-132.99"/>
</g>
<!-- MaterialModule&#45;&gt;MatIconModule  -->
<g id="edge14" class="edge">
<title>MaterialModule&#45;&gt;MatIconModule </title>
<path fill="none" stroke="black" stroke-dasharray="5,2" d="M2544.55,-108C2651.63,-108 2882,-108 2882,-108 2882,-108 2882,-132.76 2882,-132.76"/>
<polygon fill="black" stroke="black" points="2878.5,-132.76 2882,-142.76 2885.5,-132.76 2878.5,-132.76"/>
</g>
<!-- MaterialModule&#45;&gt;MatInputModule  -->
<g id="edge15" class="edge">
<title>MaterialModule&#45;&gt;MatInputModule </title>
<path fill="none" stroke="black" stroke-dasharray="5,2" d="M2544.56,-110C2620.67,-110 2751,-110 2751,-110 2751,-110 2751,-132.88 2751,-132.88"/>
<polygon fill="black" stroke="black" points="2747.5,-132.88 2751,-142.88 2754.5,-132.88 2747.5,-132.88"/>
</g>
<!-- MaterialModule&#45;&gt;MatListModule  -->
<g id="edge16" class="edge">
<title>MaterialModule&#45;&gt;MatListModule </title>
<path fill="none" stroke="black" stroke-dasharray="5,2" d="M2544.66,-112C2580.84,-112 2622,-112 2622,-112 2622,-112 2622,-132.75 2622,-132.75"/>
<polygon fill="black" stroke="black" points="2618.5,-132.75 2622,-142.75 2625.5,-132.75 2618.5,-132.75"/>
</g>
<!-- MaterialModule&#45;&gt;MatMenuModule  -->
<g id="edge17" class="edge">
<title>MaterialModule&#45;&gt;MatMenuModule </title>
<path fill="none" stroke="black" stroke-dasharray="5,2" d="M2491,-114.11C2491,-114.11 2491,-132.99 2491,-132.99"/>
<polygon fill="black" stroke="black" points="2487.5,-132.99 2491,-142.99 2494.5,-132.99 2487.5,-132.99"/>
</g>
<!-- MaterialModule&#45;&gt;MatNativeDateModule  -->
<g id="edge18" class="edge">
<title>MaterialModule&#45;&gt;MatNativeDateModule </title>
<path fill="none" stroke="black" stroke-dasharray="5,2" d="M2437.41,-112C2393.65,-112 2339,-112 2339,-112 2339,-112 2339,-132.75 2339,-132.75"/>
<polygon fill="black" stroke="black" points="2335.5,-132.75 2339,-142.75 2342.5,-132.75 2335.5,-132.75"/>
</g>
<!-- MaterialModule&#45;&gt;MatPaginatorModule  -->
<g id="edge19" class="edge">
<title>MaterialModule&#45;&gt;MatPaginatorModule </title>
<path fill="none" stroke="black" stroke-dasharray="5,2" d="M2437.38,-110C2347.7,-110 2177,-110 2177,-110 2177,-110 2177,-132.88 2177,-132.88"/>
<polygon fill="black" stroke="black" points="2173.5,-132.88 2177,-142.88 2180.5,-132.88 2173.5,-132.88"/>
</g>
<!-- MaterialModule&#45;&gt;MatProgressBarModule  -->
<g id="edge20" class="edge">
<title>MaterialModule&#45;&gt;MatProgressBarModule </title>
<path fill="none" stroke="black" stroke-dasharray="5,2" d="M2437.45,-108C2312.45,-108 2012,-108 2012,-108 2012,-108 2012,-132.76 2012,-132.76"/>
<polygon fill="black" stroke="black" points="2008.5,-132.76 2012,-142.76 2015.5,-132.76 2008.5,-132.76"/>
</g>
<!-- MaterialModule&#45;&gt;MatProgressSpinnerModule  -->
<g id="edge21" class="edge">
<title>MaterialModule&#45;&gt;MatProgressSpinnerModule </title>
<path fill="none" stroke="black" stroke-dasharray="5,2" d="M2437.31,-106C2279.47,-106 1828,-106 1828,-106 1828,-106 1828,-132.99 1828,-132.99"/>
<polygon fill="black" stroke="black" points="1824.5,-132.99 1828,-142.99 1831.5,-132.99 1824.5,-132.99"/>
</g>
<!-- MaterialModule&#45;&gt;MatRadioModule  -->
<g id="edge22" class="edge">
<title>MaterialModule&#45;&gt;MatRadioModule </title>
<path fill="none" stroke="black" stroke-dasharray="5,2" d="M2437.25,-104C2253.54,-104 1662,-104 1662,-104 1662,-104 1662,-132.96 1662,-132.96"/>
<polygon fill="black" stroke="black" points="1658.5,-132.96 1662,-142.96 1665.5,-132.96 1658.5,-132.96"/>
</g>
<!-- MaterialModule&#45;&gt;MatRippleModule  -->
<g id="edge23" class="edge">
<title>MaterialModule&#45;&gt;MatRippleModule </title>
<path fill="none" stroke="black" stroke-dasharray="5,2" d="M2437.23,-102C2233.84,-102 1523,-102 1523,-102 1523,-102 1523,-132.98 1523,-132.98"/>
<polygon fill="black" stroke="black" points="1519.5,-132.98 1523,-142.98 1526.5,-132.98 1519.5,-132.98"/>
</g>
<!-- MaterialModule&#45;&gt;MatSelectModule  -->
<g id="edge24" class="edge">
<title>MaterialModule&#45;&gt;MatSelectModule </title>
<path fill="none" stroke="black" stroke-dasharray="5,2" d="M2437.23,-100C2215.54,-100 1384,-100 1384,-100 1384,-100 1384,-132.7 1384,-132.7"/>
<polygon fill="black" stroke="black" points="1380.5,-132.7 1384,-142.7 1387.5,-132.7 1380.5,-132.7"/>
</g>
<!-- MaterialModule&#45;&gt;MatSidenavModule  -->
<g id="edge25" class="edge">
<title>MaterialModule&#45;&gt;MatSidenavModule </title>
<path fill="none" stroke="black" stroke-dasharray="5,2" d="M2437.29,-98C2198.03,-98 1241,-98 1241,-98 1241,-98 1241,-132.78 1241,-132.78"/>
<polygon fill="black" stroke="black" points="1237.5,-132.78 1241,-142.78 1244.5,-132.78 1237.5,-132.78"/>
</g>
<!-- MaterialModule&#45;&gt;MatSliderModule  -->
<g id="edge26" class="edge">
<title>MaterialModule&#45;&gt;MatSliderModule </title>
<path fill="none" stroke="black" stroke-dasharray="5,2" d="M2437.25,-95C2181.25,-95 1098,-95 1098,-95 1098,-95 1098,-132.97 1098,-132.97"/>
<polygon fill="black" stroke="black" points="1094.5,-132.97 1098,-142.97 1101.5,-132.97 1094.5,-132.97"/>
</g>
<!-- MaterialModule&#45;&gt;MatSlideToggleModule  -->
<g id="edge27" class="edge">
<title>MaterialModule&#45;&gt;MatSlideToggleModule </title>
<path fill="none" stroke="black" stroke-dasharray="5,2" d="M2437.26,-93C2164.17,-93 943,-93 943,-93 943,-93 943,-132.78 943,-132.78"/>
<polygon fill="black" stroke="black" points="939.5,-132.78 943,-142.78 946.5,-132.78 939.5,-132.78"/>
</g>
<!-- MaterialModule&#45;&gt;MatSnackBarModule  -->
<g id="edge28" class="edge">
<title>MaterialModule&#45;&gt;MatSnackBarModule </title>
<path fill="none" stroke="black" stroke-dasharray="5,2" d="M2437.38,-91C2147.22,-91 778,-91 778,-91 778,-91 778,-132.97 778,-132.97"/>
<polygon fill="black" stroke="black" points="774.5,-132.97 778,-142.97 781.5,-132.97 774.5,-132.97"/>
</g>
<!-- MaterialModule&#45;&gt;MatSortModule  -->
<g id="edge29" class="edge">
<title>MaterialModule&#45;&gt;MatSortModule </title>
<path fill="none" stroke="black" stroke-dasharray="5,2" d="M2437.48,-89C2133.34,-89 636,-89 636,-89 636,-89 636,-132.83 636,-132.83"/>
<polygon fill="black" stroke="black" points="632.5,-132.83 636,-142.83 639.5,-132.83 632.5,-132.83"/>
</g>
<!-- MaterialModule&#45;&gt;MatTableModule  -->
<g id="edge30" class="edge">
<title>MaterialModule&#45;&gt;MatTableModule </title>
<path fill="none" stroke="black" stroke-dasharray="5,2" d="M2437.37,-87C2120.3,-87 505,-87 505,-87 505,-87 505,-132.71 505,-132.71"/>
<polygon fill="black" stroke="black" points="501.5,-132.71 505,-142.71 508.5,-132.71 501.5,-132.71"/>
</g>
<!-- MaterialModule&#45;&gt;MatTabsModule  -->
<g id="edge31" class="edge">
<title>MaterialModule&#45;&gt;MatTabsModule </title>
<path fill="none" stroke="black" stroke-dasharray="5,2" d="M2437.29,-85C2107.63,-85 372,-85 372,-85 372,-85 372,-132.99 372,-132.99"/>
<polygon fill="black" stroke="black" points="368.5,-132.99 372,-142.99 375.5,-132.99 368.5,-132.99"/>
</g>
<!-- MaterialModule&#45;&gt;MatToolbarModule  -->
<g id="edge32" class="edge">
<title>MaterialModule&#45;&gt;MatToolbarModule </title>
<path fill="none" stroke="black" stroke-dasharray="5,2" d="M2437.41,-83C2095.47,-83 233,-83 233,-83 233,-83 233,-132.91 233,-132.91"/>
<polygon fill="black" stroke="black" points="229.5,-132.91 233,-142.91 236.5,-132.91 229.5,-132.91"/>
</g>
<!-- MaterialModule&#45;&gt;MatTooltipModule  -->
<g id="edge33" class="edge">
<title>MaterialModule&#45;&gt;MatTooltipModule </title>
<path fill="none" stroke="black" stroke-dasharray="5,2" d="M2437.42,-81C2082.71,-81 87,-81 87,-81 87,-81 87,-132.85 87,-132.85"/>
<polygon fill="black" stroke="black" points="83.5,-132.85 87,-142.85 90.5,-132.85 83.5,-132.85"/>
</g>
</g>
</svg>
