<?xml version="1.0" encoding="UTF-8" standalone="no"?>
<!DOCTYPE svg PUBLIC "-//W3C//DTD SVG 1.1//EN"
 "http://www.w3.org/Graphics/SVG/1.1/DTD/svg11.dtd">
<!-- Generated by graphviz version 2.47.0 (20210316.0004)
 -->
<!-- Title: dependencies Pages: 1 -->
<svg width="3112pt" height="349pt"
 viewBox="0.00 0.00 3112.00 349.00" xmlns="http://www.w3.org/2000/svg" xmlns:xlink="http://www.w3.org/1999/xlink">
<g id="graph0" class="graph" transform="scale(1 1) rotate(0) translate(4 345)">
<title>dependencies</title>
<polygon fill="white" stroke="transparent" points="-4,4 -4,-345 3108,-345 3108,4 -4,4"/>
<text text-anchor="start" x="1531.01" y="-42.4" font-family="sans-serif" font-weight="bold" font-size="14.00">Legend</text>
<polygon fill="#ffffb3" stroke="transparent" points="1318,-10 1318,-30 1338,-30 1338,-10 1318,-10"/>
<text text-anchor="start" x="1341.63" y="-15.4" font-family="sans-serif" font-size="14.00"> &#160;Declarations</text>
<polygon fill="#8dd3c7" stroke="transparent" points="1431,-10 1431,-30 1451,-30 1451,-10 1431,-10"/>
<text text-anchor="start" x="1454.73" y="-15.4" font-family="sans-serif" font-size="14.00"> &#160;Module</text>
<polygon fill="#80b1d3" stroke="transparent" points="1517,-10 1517,-30 1537,-30 1537,-10 1517,-10"/>
<text text-anchor="start" x="1540.78" y="-15.4" font-family="sans-serif" font-size="14.00"> &#160;Bootstrap</text>
<polygon fill="#fdb462" stroke="transparent" points="1614,-10 1614,-30 1634,-30 1634,-10 1614,-10"/>
<text text-anchor="start" x="1637.67" y="-15.4" font-family="sans-serif" font-size="14.00"> &#160;Providers</text>
<polygon fill="#fb8072" stroke="transparent" points="1710,-10 1710,-30 1730,-30 1730,-10 1710,-10"/>
<text text-anchor="start" x="1733.73" y="-15.4" font-family="sans-serif" font-size="14.00"> &#160;Exports</text>
<g id="clust1" class="cluster">
<title>cluster_SharedModule</title>
<polygon fill="none" stroke="black" stroke-dasharray="1,5" points="8,-70 8,-333 3096,-333 3096,-70 8,-70"/>
</g>
<g id="clust5" class="cluster">
<title>cluster_SharedModule_EmailValidationDirective_providers</title>
<polygon fill="none" stroke="black" points="2422,-78 2422,-195 3088,-195 3088,-78 2422,-78"/>
</g>
<g id="clust10" class="cluster">
<title>cluster_SharedModule_imports</title>
<polygon fill="none" stroke="black" points="2162,-143 2162,-195 2414,-195 2414,-143 2162,-143"/>
</g>
<g id="clust13" class="cluster">
<title>cluster_SharedModule_providers</title>
<polygon fill="none" stroke="black" points="1532,-143 1532,-195 2154,-195 2154,-143 1532,-143"/>
</g>
<g id="clust11" class="cluster">
<title>cluster_SharedModule_exports</title>
<polygon fill="none" stroke="black" points="89,-273 89,-325 1650,-325 1650,-273 89,-273"/>
</g>
<g id="clust4" class="cluster">
<title>cluster_SharedModule_KlasseValidationDirective_providers</title>
<polygon fill="none" stroke="black" points="852,-78 852,-195 1524,-195 1524,-78 852,-78"/>
</g>
<g id="clust2" class="cluster">
<title>cluster_SharedModule_declarations</title>
<polygon fill="none" stroke="black" points="16,-143 16,-195 844,-195 844,-143 16,-143"/>
</g>
<g id="clust6" class="cluster">
<title>cluster_SharedModule_CompareWithDirective_providers</title>
<polygon fill="none" stroke="black" points="196,-78 196,-130 844,-130 844,-78 196,-78"/>
</g>
<!-- GenericSnackbarComponent -->
<g id="node1" class="node">
<title>GenericSnackbarComponent</title>
<polygon fill="#ffffb3" stroke="black" points="835.72,-187 658.28,-187 658.28,-151 835.72,-151 835.72,-187"/>
<text text-anchor="middle" x="747" y="-164.8" font-family="Times,serif" font-size="14.00">GenericSnackbarComponent</text>
</g>
<!-- SharedModule -->
<g id="node8" class="node">
<title>SharedModule</title>
<polygon fill="#8dd3c7" stroke="black" points="981.42,-252 978.42,-256 957.42,-256 954.42,-252 882.58,-252 882.58,-216 981.42,-216 981.42,-252"/>
<text text-anchor="middle" x="932" y="-229.8" font-family="Times,serif" font-size="14.00">SharedModule</text>
</g>
<!-- GenericSnackbarComponent&#45;&gt;SharedModule -->
<g id="edge1" class="edge">
<title>GenericSnackbarComponent&#45;&gt;SharedModule</title>
<path fill="none" stroke="black" d="M821.39,-187.12C821.39,-201.78 821.39,-220 821.39,-220 821.39,-220 872.52,-220 872.52,-220"/>
<polygon fill="black" stroke="black" points="872.52,-223.5 882.52,-220 872.52,-216.5 872.52,-223.5"/>
</g>
<!-- KlasseValidationDirective -->
<g id="node2" class="node">
<title>KlasseValidationDirective</title>
<polygon fill="#ffffb3" stroke="black" points="1147.5,-187 982.5,-187 982.5,-151 1147.5,-151 1147.5,-187"/>
<text text-anchor="middle" x="1065" y="-164.8" font-family="Times,serif" font-size="14.00">KlasseValidationDirective</text>
</g>
<!-- KlasseValidationDirective&#45;&gt;SharedModule -->
<g id="edge2" class="edge">
<title>KlasseValidationDirective&#45;&gt;SharedModule</title>
<path fill="none" stroke="black" d="M1014.08,-187.12C1014.08,-201.78 1014.08,-220 1014.08,-220 1014.08,-220 991.64,-220 991.64,-220"/>
<polygon fill="black" stroke="black" points="991.64,-216.5 981.64,-220 991.64,-223.5 991.64,-216.5"/>
</g>
<!-- EmailValidationDirective -->
<g id="node3" class="node">
<title>EmailValidationDirective</title>
<polygon fill="#ffffb3" stroke="black" points="2712.12,-187 2551.88,-187 2551.88,-151 2712.12,-151 2712.12,-187"/>
<text text-anchor="middle" x="2632" y="-164.8" font-family="Times,serif" font-size="14.00">EmailValidationDirective</text>
</g>
<!-- EmailValidationDirective&#45;&gt;SharedModule -->
<g id="edge4" class="edge">
<title>EmailValidationDirective&#45;&gt;SharedModule</title>
<path fill="none" stroke="black" d="M2632,-187.11C2632,-206.34 2632,-234 2632,-234 2632,-234 991.5,-234 991.5,-234"/>
<polygon fill="black" stroke="black" points="991.5,-230.5 981.5,-234 991.5,-237.5 991.5,-230.5"/>
</g>
<!-- CompareWithDirective -->
<g id="node4" class="node">
<title>CompareWithDirective</title>
<polygon fill="#ffffb3" stroke="black" points="639.9,-187 492.1,-187 492.1,-151 639.9,-151 639.9,-187"/>
<text text-anchor="middle" x="566" y="-164.8" font-family="Times,serif" font-size="14.00">CompareWithDirective</text>
</g>
<!-- CompareWithDirective&#45;&gt;SharedModule -->
<g id="edge6" class="edge">
<title>CompareWithDirective&#45;&gt;SharedModule</title>
<path fill="none" stroke="black" d="M623.54,-187.01C623.54,-203.05 623.54,-224 623.54,-224 623.54,-224 872.78,-224 872.78,-224"/>
<polygon fill="black" stroke="black" points="872.78,-227.5 882.78,-224 872.78,-220.5 872.78,-227.5"/>
</g>
<!-- LoaderComponent -->
<g id="node5" class="node">
<title>LoaderComponent</title>
<polygon fill="#ffffb3" stroke="black" points="474.47,-187 353.53,-187 353.53,-151 474.47,-151 474.47,-187"/>
<text text-anchor="middle" x="414" y="-164.8" font-family="Times,serif" font-size="14.00">LoaderComponent</text>
</g>
<!-- LoaderComponent&#45;&gt;SharedModule -->
<g id="edge8" class="edge">
<title>LoaderComponent&#45;&gt;SharedModule</title>
<path fill="none" stroke="black" d="M447.74,-187.03C447.74,-204.06 447.74,-227 447.74,-227 447.74,-227 872.45,-227 872.45,-227"/>
<polygon fill="black" stroke="black" points="872.45,-230.5 882.45,-227 872.45,-223.5 872.45,-230.5"/>
</g>
<!-- ImpressumComponent -->
<g id="node6" class="node">
<title>ImpressumComponent</title>
<polygon fill="#ffffb3" stroke="black" points="335.54,-187 192.46,-187 192.46,-151 335.54,-151 335.54,-187"/>
<text text-anchor="middle" x="264" y="-164.8" font-family="Times,serif" font-size="14.00">ImpressumComponent</text>
</g>
<!-- ImpressumComponent&#45;&gt;SharedModule -->
<g id="edge9" class="edge">
<title>ImpressumComponent&#45;&gt;SharedModule</title>
<path fill="none" stroke="black" d="M287.35,-187.27C287.35,-205.56 287.35,-231 287.35,-231 287.35,-231 872.75,-231 872.75,-231"/>
<polygon fill="black" stroke="black" points="872.75,-234.5 882.75,-231 872.75,-227.5 872.75,-234.5"/>
</g>
<!-- DatenschutzComponent -->
<g id="node7" class="node">
<title>DatenschutzComponent</title>
<polygon fill="#ffffb3" stroke="black" points="174.02,-187 23.98,-187 23.98,-151 174.02,-151 174.02,-187"/>
<text text-anchor="middle" x="99" y="-164.8" font-family="Times,serif" font-size="14.00">DatenschutzComponent</text>
</g>
<!-- DatenschutzComponent&#45;&gt;SharedModule -->
<g id="edge10" class="edge">
<title>DatenschutzComponent&#45;&gt;SharedModule</title>
<path fill="none" stroke="black" d="M135.51,-187.11C135.51,-206.34 135.51,-234 135.51,-234 135.51,-234 872.78,-234 872.78,-234"/>
<polygon fill="black" stroke="black" points="872.78,-237.5 882.78,-234 872.78,-230.5 872.78,-237.5"/>
</g>
<!-- CommonModule  -->
<g id="node14" class="node">
<title>CommonModule </title>
<polygon fill="#fb8072" stroke="black" points="1641.67,-317 1526.33,-317 1526.33,-281 1641.67,-281 1641.67,-317"/>
<text text-anchor="middle" x="1584" y="-294.8" font-family="Times,serif" font-size="14.00">CommonModule </text>
</g>
<!-- SharedModule&#45;&gt;CommonModule  -->
<g id="edge13" class="edge">
<title>SharedModule&#45;&gt;CommonModule </title>
<path fill="none" stroke="black" stroke-dasharray="5,2" d="M981.44,-238C1125.23,-238 1533.08,-238 1533.08,-238 1533.08,-238 1533.08,-270.7 1533.08,-270.7"/>
<polygon fill="black" stroke="black" points="1529.58,-270.7 1533.08,-280.7 1536.58,-270.7 1529.58,-270.7"/>
</g>
<!-- ReactiveFormsModule  -->
<g id="node15" class="node">
<title>ReactiveFormsModule </title>
<polygon fill="#fb8072" stroke="black" points="1508.8,-317 1361.2,-317 1361.2,-281 1508.8,-281 1508.8,-317"/>
<text text-anchor="middle" x="1435" y="-294.8" font-family="Times,serif" font-size="14.00">ReactiveFormsModule </text>
</g>
<!-- SharedModule&#45;&gt;ReactiveFormsModule  -->
<g id="edge14" class="edge">
<title>SharedModule&#45;&gt;ReactiveFormsModule </title>
<path fill="none" stroke="black" stroke-dasharray="5,2" d="M981.61,-242C1108.51,-242 1435,-242 1435,-242 1435,-242 1435,-270.96 1435,-270.96"/>
<polygon fill="black" stroke="black" points="1431.5,-270.96 1435,-280.96 1438.5,-270.96 1431.5,-270.96"/>
</g>
<!-- CompareWithDirective  -->
<g id="node16" class="node">
<title>CompareWithDirective </title>
<polygon fill="#fb8072" stroke="black" points="1343.4,-317 1192.6,-317 1192.6,-281 1343.4,-281 1343.4,-317"/>
<text text-anchor="middle" x="1268" y="-294.8" font-family="Times,serif" font-size="14.00">CompareWithDirective </text>
</g>
<!-- SharedModule&#45;&gt;CompareWithDirective  -->
<g id="edge15" class="edge">
<title>SharedModule&#45;&gt;CompareWithDirective </title>
<path fill="none" stroke="black" stroke-dasharray="5,2" d="M981.22,-245C1074.54,-245 1268,-245 1268,-245 1268,-245 1268,-270.72 1268,-270.72"/>
<polygon fill="black" stroke="black" points="1264.5,-270.72 1268,-280.72 1271.5,-270.72 1264.5,-270.72"/>
</g>
<!-- MaterialModule  -->
<g id="node17" class="node">
<title>MaterialModule </title>
<polygon fill="#fb8072" stroke="black" points="1174.47,-317 1063.53,-317 1063.53,-281 1174.47,-281 1174.47,-317"/>
<text text-anchor="middle" x="1119" y="-294.8" font-family="Times,serif" font-size="14.00">MaterialModule </text>
</g>
<!-- SharedModule&#45;&gt;MaterialModule  -->
<g id="edge16" class="edge">
<title>SharedModule&#45;&gt;MaterialModule </title>
<path fill="none" stroke="black" stroke-dasharray="5,2" d="M981.26,-249C1032.55,-249 1105.51,-249 1105.51,-249 1105.51,-249 1105.51,-270.95 1105.51,-270.95"/>
<polygon fill="black" stroke="black" points="1102.01,-270.95 1105.51,-280.95 1109.01,-270.95 1102.01,-270.95"/>
</g>
<!-- FormsModule  -->
<g id="node18" class="node">
<title>FormsModule </title>
<polygon fill="#fb8072" stroke="black" points="1045.33,-317 946.67,-317 946.67,-281 1045.33,-281 1045.33,-317"/>
<text text-anchor="middle" x="996" y="-294.8" font-family="Times,serif" font-size="14.00">FormsModule </text>
</g>
<!-- SharedModule&#45;&gt;FormsModule  -->
<g id="edge17" class="edge">
<title>SharedModule&#45;&gt;FormsModule </title>
<path fill="none" stroke="black" stroke-dasharray="5,2" d="M963.9,-252.11C963.9,-252.11 963.9,-270.99 963.9,-270.99"/>
<polygon fill="black" stroke="black" points="960.4,-270.99 963.9,-280.99 967.4,-270.99 960.4,-270.99"/>
</g>
<!-- HttpClientModule  -->
<g id="node19" class="node">
<title>HttpClientModule </title>
<polygon fill="#fb8072" stroke="black" points="929.16,-317 806.84,-317 806.84,-281 929.16,-281 929.16,-317"/>
<text text-anchor="middle" x="868" y="-294.8" font-family="Times,serif" font-size="14.00">HttpClientModule </text>
</g>
<!-- SharedModule&#45;&gt;HttpClientModule  -->
<g id="edge18" class="edge">
<title>SharedModule&#45;&gt;HttpClientModule </title>
<path fill="none" stroke="black" stroke-dasharray="5,2" d="M905.93,-252.11C905.93,-252.11 905.93,-270.99 905.93,-270.99"/>
<polygon fill="black" stroke="black" points="902.43,-270.99 905.93,-280.99 909.43,-270.99 902.43,-270.99"/>
</g>
<!-- GenericSnackbarComponent  -->
<g id="node20" class="node">
<title>GenericSnackbarComponent </title>
<polygon fill="#fb8072" stroke="black" points="788.72,-317 607.28,-317 607.28,-281 788.72,-281 788.72,-317"/>
<text text-anchor="middle" x="698" y="-294.8" font-family="Times,serif" font-size="14.00">GenericSnackbarComponent </text>
</g>
<!-- SharedModule&#45;&gt;GenericSnackbarComponent  -->
<g id="edge19" class="edge">
<title>SharedModule&#45;&gt;GenericSnackbarComponent </title>
<path fill="none" stroke="black" stroke-dasharray="5,2" d="M882.56,-249C820.87,-249 723.38,-249 723.38,-249 723.38,-249 723.38,-270.95 723.38,-270.95"/>
<polygon fill="black" stroke="black" points="719.88,-270.95 723.38,-280.95 726.88,-270.95 719.88,-270.95"/>
</g>
<!-- KlasseValidationDirective  -->
<g id="node21" class="node">
<title>KlasseValidationDirective </title>
<polygon fill="#fb8072" stroke="black" points="589,-317 421,-317 421,-281 589,-281 589,-317"/>
<text text-anchor="middle" x="505" y="-294.8" font-family="Times,serif" font-size="14.00">KlasseValidationDirective </text>
</g>
<!-- SharedModule&#45;&gt;KlasseValidationDirective  -->
<g id="edge20" class="edge">
<title>SharedModule&#45;&gt;KlasseValidationDirective </title>
<path fill="none" stroke="black" stroke-dasharray="5,2" d="M882.44,-245C777.13,-245 540.65,-245 540.65,-245 540.65,-245 540.65,-270.72 540.65,-270.72"/>
<polygon fill="black" stroke="black" points="537.15,-270.72 540.65,-280.72 544.15,-270.72 537.15,-270.72"/>
</g>
<!-- EmailValidationDirective  -->
<g id="node22" class="node">
<title>EmailValidationDirective </title>
<polygon fill="#fb8072" stroke="black" points="403.12,-317 238.88,-317 238.88,-281 403.12,-281 403.12,-317"/>
<text text-anchor="middle" x="321" y="-294.8" font-family="Times,serif" font-size="14.00">EmailValidationDirective </text>
</g>
<!-- SharedModule&#45;&gt;EmailValidationDirective  -->
<g id="edge21" class="edge">
<title>SharedModule&#45;&gt;EmailValidationDirective </title>
<path fill="none" stroke="black" stroke-dasharray="5,2" d="M882.37,-242C746.46,-242 378.29,-242 378.29,-242 378.29,-242 378.29,-270.96 378.29,-270.96"/>
<polygon fill="black" stroke="black" points="374.79,-270.96 378.29,-280.96 381.79,-270.96 374.79,-270.96"/>
</g>
<!-- LoaderComponent  -->
<g id="node23" class="node">
<title>LoaderComponent </title>
<polygon fill="#fb8072" stroke="black" points="221.48,-317 96.52,-317 96.52,-281 221.48,-281 221.48,-317"/>
<text text-anchor="middle" x="159" y="-294.8" font-family="Times,serif" font-size="14.00">LoaderComponent </text>
</g>
<!-- SharedModule&#45;&gt;LoaderComponent  -->
<g id="edge22" class="edge">
<title>SharedModule&#45;&gt;LoaderComponent </title>
<path fill="none" stroke="black" stroke-dasharray="5,2" d="M882.72,-238C719.48,-238 206.73,-238 206.73,-238 206.73,-238 206.73,-270.7 206.73,-270.7"/>
<polygon fill="black" stroke="black" points="203.23,-270.7 206.73,-280.7 210.23,-270.7 203.23,-270.7"/>
</g>
<!-- { provide: NG_VALIDATORS, useExisting: KlasseValidationDirective, multi: &#160;} -->
<g id="node9" class="node">
<title>{ provide: NG_VALIDATORS, useExisting: KlasseValidationDirective, multi: &#160;}</title>
<ellipse fill="#fdb462" stroke="black" cx="1188" cy="-104" rx="327.84" ry="18"/>
<text text-anchor="middle" x="1188" y="-99.8" font-family="Times,serif" font-size="14.00">{ provide: NG_VALIDATORS, useExisting: KlasseValidationDirective, multi: &#160;}</text>
</g>
<!-- { provide: NG_VALIDATORS, useExisting: KlasseValidationDirective, multi: &#160;}&#45;&gt;KlasseValidationDirective -->
<g id="edge3" class="edge">
<title>{ provide: NG_VALIDATORS, useExisting: KlasseValidationDirective, multi: &#160;}&#45;&gt;KlasseValidationDirective</title>
<path fill="none" stroke="black" d="M1065,-120.74C1065,-120.74 1065,-140.72 1065,-140.72"/>
<polygon fill="black" stroke="black" points="1061.5,-140.72 1065,-150.72 1068.5,-140.72 1061.5,-140.72"/>
</g>
<!-- { provide: NG_VALIDATORS, useExisting: EmailValidationDirective, multi: &#160;} -->
<g id="node10" class="node">
<title>{ provide: NG_VALIDATORS, useExisting: EmailValidationDirective, multi: &#160;}</title>
<ellipse fill="#fdb462" stroke="black" cx="2755" cy="-104" rx="325.49" ry="18"/>
<text text-anchor="middle" x="2755" y="-99.8" font-family="Times,serif" font-size="14.00">{ provide: NG_VALIDATORS, useExisting: EmailValidationDirective, multi: &#160;}</text>
</g>
<!-- { provide: NG_VALIDATORS, useExisting: EmailValidationDirective, multi: &#160;}&#45;&gt;EmailValidationDirective -->
<g id="edge5" class="edge">
<title>{ provide: NG_VALIDATORS, useExisting: EmailValidationDirective, multi: &#160;}&#45;&gt;EmailValidationDirective</title>
<path fill="none" stroke="black" d="M2632,-120.74C2632,-120.74 2632,-140.72 2632,-140.72"/>
<polygon fill="black" stroke="black" points="2628.5,-140.72 2632,-150.72 2635.5,-140.72 2628.5,-140.72"/>
</g>
<!-- { provide: NG_VALIDATORS, useExisting: CompareWithDirective, multi: &#160;} -->
<g id="node11" class="node">
<title>{ provide: NG_VALIDATORS, useExisting: CompareWithDirective, multi: &#160;}</title>
<ellipse fill="#fdb462" stroke="black" cx="520" cy="-104" rx="316.24" ry="18"/>
<text text-anchor="middle" x="520" y="-99.8" font-family="Times,serif" font-size="14.00">{ provide: NG_VALIDATORS, useExisting: CompareWithDirective, multi: &#160;}</text>
</g>
<!-- { provide: NG_VALIDATORS, useExisting: CompareWithDirective, multi: &#160;}&#45;&gt;CompareWithDirective -->
<g id="edge7" class="edge">
<title>{ provide: NG_VALIDATORS, useExisting: CompareWithDirective, multi: &#160;}&#45;&gt;CompareWithDirective</title>
<path fill="none" stroke="black" d="M566,-122.11C566,-122.11 566,-140.99 566,-140.99"/>
<polygon fill="black" stroke="black" points="562.5,-140.99 566,-150.99 569.5,-140.99 562.5,-140.99"/>
</g>
<!-- CommonModule -->
<g id="node12" class="node">
<title>CommonModule</title>
<polygon fill="#8dd3c7" stroke="black" points="2405.67,-187 2402.67,-191 2381.67,-191 2378.67,-187 2294.33,-187 2294.33,-151 2405.67,-151 2405.67,-187"/>
<text text-anchor="middle" x="2350" y="-164.8" font-family="Times,serif" font-size="14.00">CommonModule</text>
</g>
<!-- CommonModule&#45;&gt;SharedModule -->
<g id="edge11" class="edge">
<title>CommonModule&#45;&gt;SharedModule</title>
<path fill="none" stroke="black" d="M2350,-187.27C2350,-205.56 2350,-231 2350,-231 2350,-231 991.22,-231 991.22,-231"/>
<polygon fill="black" stroke="black" points="991.22,-227.5 981.22,-231 991.22,-234.5 991.22,-227.5"/>
</g>
<!-- MaterialModule -->
<g id="node13" class="node">
<title>MaterialModule</title>
<polygon fill="#8dd3c7" stroke="black" points="2276.47,-187 2273.47,-191 2252.47,-191 2249.47,-187 2169.53,-187 2169.53,-151 2276.47,-151 2276.47,-187"/>
<text text-anchor="middle" x="2223" y="-164.8" font-family="Times,serif" font-size="14.00">MaterialModule</text>
</g>
<!-- MaterialModule&#45;&gt;SharedModule -->
<g id="edge12" class="edge">
<title>MaterialModule&#45;&gt;SharedModule</title>
<path fill="none" stroke="black" d="M2223,-187.03C2223,-204.06 2223,-227 2223,-227 2223,-227 991.42,-227 991.42,-227"/>
<polygon fill="black" stroke="black" points="991.42,-223.5 981.42,-227 991.42,-230.5 991.42,-223.5"/>
</g>
<!-- { provide: HTTP_INTERCEPTORS, useClass: LoaderInterceptor, multi: &#160;} -->
<g id="node24" class="node">
<title>{ provide: HTTP_INTERCEPTORS, useClass: LoaderInterceptor, multi: &#160;}</title>
<ellipse fill="#fdb462" stroke="black" cx="1843" cy="-169" rx="303.5" ry="18"/>
<text text-anchor="middle" x="1843" y="-164.8" font-family="Times,serif" font-size="14.00">{ provide: HTTP_INTERCEPTORS, useClass: LoaderInterceptor, multi: &#160;}</text>
</g>
<!-- { provide: HTTP_INTERCEPTORS, useClass: LoaderInterceptor, multi: &#160;}&#45;&gt;SharedModule -->
<g id="edge23" class="edge">
<title>{ provide: HTTP_INTERCEPTORS, useClass: LoaderInterceptor, multi: &#160;}&#45;&gt;SharedModule</title>
<path fill="none" stroke="black" d="M1590.67,-179.09C1590.67,-194.97 1590.67,-224 1590.67,-224 1590.67,-224 991.24,-224 991.24,-224"/>
<polygon fill="black" stroke="black" points="991.24,-220.5 981.24,-224 991.24,-227.5 991.24,-220.5"/>
</g>
</g>
</svg>
