<?xml version="1.0" encoding="UTF-8" standalone="no"?>
<!DOCTYPE svg PUBLIC "-//W3C//DTD SVG 1.1//EN" "http://www.w3.org/Graphics/SVG/1.1/DTD/svg11.dtd">
<svg version="1.1" xmlns="http://www.w3.org/2000/svg" xmlns:xlink="http://www.w3.org/1999/xlink" preserveAspectRatio="xMidYMid meet" viewBox="75.49000867171722 70.41347958916604 70.94307871234858 61.320359993115616" width="66.94" height="57.32"><defs><path d="M133.59 71.44L134.05 71.47L134.36 71.47L134.59 71.5L134.73 71.5L135.16 71.59L135.62 71.67L136.05 71.79L136.9 72.08L137.3 72.25L137.73 72.45L138.13 72.65L138.53 72.88L139.64 73.66L139.98 73.95L140.3 74.23L140.61 74.55L140.89 74.9L141.35 75.41L141.55 75.7L141.72 75.99L141.92 76.28L142.09 76.56L142.24 76.85L142.41 77.17L142.55 77.46L142.66 77.77L142.81 78.09L142.92 78.43L143.01 78.75L143.12 79.1L143.2 79.41L143.26 79.76L143.43 80.54L143.43 112.91L143.4 114.52L143.4 118.52L143.38 119.04L143.38 119.44L143.35 119.73L143.35 119.96L143.29 120.25L143.18 120.85L143.01 121.42L142.81 122L142.58 122.58L142.35 123.09L142.06 123.64L141.75 124.13L141.41 124.62L141.04 125.08L140.64 125.54L140.24 125.94L139.78 126.35L139.33 126.72L138.84 127.06L138.33 127.38L137.79 127.67L137.64 127.76L137.36 127.87L137.19 127.93L137.02 128.01L136.67 128.13L136.47 128.19L136.3 128.27L136.13 128.33L135.93 128.39L135.76 128.42L135.56 128.47L135.39 128.53L135.25 128.56L135.08 128.59L134.96 128.62L134.79 128.62L134.56 128.65L134.19 128.68L133.05 128.68L132.17 128.71L123.72 128.71L121.01 128.73L92.06 128.73L90.55 128.71L86.62 128.71L86.07 128.68L85.42 128.68L85.28 128.65L84.56 128.53L83.88 128.36L83.22 128.13L82.57 127.87L81.94 127.58L81.34 127.24L80.77 126.83L80.2 126.4L79.68 125.94L79.2 125.45L78.74 124.94L78.32 124.36L77.94 123.78L77.6 123.15L77.29 122.52L77.03 121.83L77 121.77L76.89 121.42L76.89 121.31L76.83 121.14L76.8 121.02L76.78 120.94L76.75 120.82L76.69 120.65L76.69 120.56L76.63 120.39L76.49 119.61L76.49 80.54L76.63 79.76L76.83 79.01L77.06 78.26L77.32 77.54L78 76.22L78.43 75.61L78.89 75.04L79.37 74.49L79.88 74L80.45 73.51L81.08 73.08L81.71 72.71L82.39 72.36L83.11 72.05L83.85 71.82L84.62 71.59L85.25 71.44L109.63 71.41L131.28 71.41L132.25 71.44L133.59 71.44ZM91.38 88.3L91.44 109.25L104.24 109.25L117.08 109.28L117.08 116.1L117.11 116.85L117.11 119.07L117.14 119.38L117.14 119.67L117.68 119.12L118.33 118.49L119.16 117.63L120.22 116.59L124.27 112.5L125.86 110.92L127.55 109.22L127.95 108.79L129.2 107.56L131.25 105.45L134.16 102.55L137.87 98.78L127.49 88.3L117.08 77.83L117.08 88.3L91.38 88.3Z" id="bMlo4QL5H"></path></defs><g><g><use xlink:href="#bMlo4QL5H" opacity="1" fill="#4d4d4d" fill-opacity="1"></use><g><use xlink:href="#bMlo4QL5H" opacity="1" fill-opacity="0" stroke="#000000" stroke-width="1" stroke-opacity="0"></use></g></g></g></svg>