<svg id="Ebene_1" data-name="Ebene 1" xmlns="http://www.w3.org/2000/svg" viewBox="0 0 64 64"><defs><style>.cls-1{fill:#414042;}.cls-2{fill:#0696ef;}</style></defs><title>002-01-033</title><path class="cls-1" d="M3.79,39.06l1,1.73,5.2-3L9,36.06Zm0-30.27,5.2,3,1-1.73-5.2-3ZM6,22.92H0v2H6Zm52,0v2h6v-2ZM54,37.79l5.2,3,1-1.73-5.2-3Zm6.2-29-1-1.73-5.2,3,1,1.73ZM29,11.29V5a3,3,0,0,1,6,0v6.29c.31.06.61.13.9.21H37V5A5,5,0,0,0,27,5v6.5h1.1C28.39,11.42,28.69,11.35,29,11.29Zm8.55,45.16a5.55,5.55,0,1,1-11.09,0V56h-2v.45a7.55,7.55,0,1,0,15.09,0V56h-2ZM32,17V15A12,12,0,0,0,20,27h2A10,10,0,0,1,32,17Z"/><path class="cls-2" d="M55.56,51.23A6.55,6.55,0,0,1,49,44.69V27h0a17,17,0,0,0-34,0h0V44.69a6.55,6.55,0,0,1-6.54,6.54H6.5V57h51V51.23ZM55.5,55H8.5V53.23A8.55,8.55,0,0,0,17,44.69V27h0a15,15,0,0,1,30,0h0V44.69a8.55,8.55,0,0,0,8.48,8.54Z"/></svg>