<?xml version="1.0" encoding="UTF-8" standalone="no"?>
<!DOCTYPE svg PUBLIC "-//W3C//DTD SVG 1.1//EN" "http://www.w3.org/Graphics/SVG/1.1/DTD/svg11.dtd">
<svg version="1.1" xmlns="http://www.w3.org/2000/svg" xmlns:xlink="http://www.w3.org/1999/xlink" preserveAspectRatio="xMidYMid meet" viewBox="2.2119283799561202 -3.552713678800501e-15 635.5761432400877 449.87465794511775" width="635.58" height="449.87"><defs><path d="M104.56 437.09C73.99 421.16 46.07 390.12 23.16 346.59C9.78 321.16 -1.32 289.09 3.26 289.09C3.81 289.09 8.97 293.72 14.73 299.37C20.48 305.02 29.64 313.01 35.08 317.12C40.51 321.23 51.1 329.33 58.6 335.12C79.47 351.22 84.15 354.5 92.51 358.84C109.77 367.81 126.99 371.17 145.68 369.21C184.84 365.1 206.26 345.28 202.95 316.21C201.64 304.72 196.14 297.56 187.72 296.39C184.62 295.96 182.27 296.63 175.28 299.97C170.55 302.23 164.36 304.53 161.55 305.09C149.46 307.46 132.44 305.61 116.39 300.17C82.67 288.75 55.23 261.47 34.35 218.59C19.18 187.45 11.28 155.93 10.27 122.59C9.68 103.22 10.91 93.85 15.92 79.52C24.56 54.78 49.42 27.16 75.66 13.14C92.62 4.08 108.23 -0.05 125.32 0C139.12 0.04 146.48 2.16 163.92 11.1C186.4 22.63 199.3 34.31 206.43 49.59C210.66 58.65 214.42 70.6 213.38 71.68C212.3 72.79 208.61 69.87 196.17 58.05C181.14 43.77 176.56 40.38 169 37.94C158.73 34.63 134.29 35.94 118.2 40.68C98.25 46.55 75.81 61.93 63.07 78.47C51.88 93 41.1 114.69 38.4 128.1C34.36 148.17 46.65 169.63 74.92 191.89C87.14 201.52 104.78 208.56 119.64 209.74C130.03 210.57 135.42 208.83 161.79 196.1C184.62 185.08 192.18 182.54 199.04 183.59C214.77 186 236.63 201.04 251.14 219.44C267.56 240.26 278.74 264.09 284.28 290.09C287.05 303.08 287.29 331.4 284.74 344.43C273 404.51 229.96 443.49 169.21 449.06C158.39 450.05 156.43 450.09 148.48 449.44C134.36 448.3 116.36 443.23 104.56 437.09Z" id="h1U8N33mh0"></path><path d="M346.3 414.1C338.71 388.52 335.96 380.18 324.21 347.1C309.29 305.11 305.06 294.57 292.3 267.6C281.79 245.37 279.62 238.95 281.19 234.67C282.36 231.49 285.1 231.34 289.56 234.19C292.9 236.33 308.52 257.33 322.22 278.1C329.83 289.65 338.73 307.68 347.39 329.1C352.71 342.28 383.82 406.69 386.14 409.35C387.56 410.98 387.82 410.99 389.4 409.51C390.34 408.63 393.13 401.31 395.59 393.25C410.56 344.25 414.3 333.66 424.76 310.6C444.55 267.01 471.59 229.33 513.11 187.51C550.22 150.12 578.07 127.87 605 114.09C623.01 104.87 639.33 100.14 637.67 104.62C637.36 105.45 631.19 111 623.95 116.96C605.64 132.03 595.5 142.24 574.18 167.09C527.8 221.17 514.41 239.13 482.54 290.05C450.42 341.37 443.55 356.01 429.29 403.6C422.33 426.8 416.61 439.2 410.75 443.79C405.05 448.26 401.23 449.25 387.86 449.73C377.97 450.09 375.51 449.85 371.03 448.14C359.46 443.7 352.05 433.49 346.3 414.1Z" id="a2c7P7ThOk"></path><path d="M94.81 177.11C92.93 173.46 92.6 171.32 92.6 162.82C92.6 154.3 92.93 152.18 94.81 148.52C98.22 141.9 103.33 136.65 109.33 133.59C114.02 131.21 115.95 130.82 123 130.84C130.46 130.87 131.75 131.17 137.31 134.27C148.88 140.72 154.4 150.87 153.65 164.32C152.95 176.85 146.48 186.98 136.03 191.94C130.36 194.63 121.36 195.68 115.99 194.29C107.25 192.01 99.07 185.37 94.81 177.11Z" id="b31kJRI1T"></path><path d="M182.22 286.16C195.44 272.23 206.12 254.38 210.38 239.11C214.86 223.01 215.48 204.31 211.78 196.83C210.22 193.68 206 189.24 203.07 187.65C196.22 183.94 188.99 186.17 161.45 200.45C139.86 211.64 132.81 213.69 118.39 212.96C101.19 212.1 87.56 207.16 73.46 196.7C54.11 182.35 29.81 145.98 19.87 116.46C16.44 106.29 14.93 103.59 13.29 104.64C11.93 105.51 11.88 112.91 13.13 128.24C16.13 165.05 21.08 185.43 33.07 210.24C58.27 262.41 89.08 291.99 127.93 301.31C138.21 303.77 152.22 303.76 159.97 301.27C168.13 298.66 174.4 294.4 182.22 286.16Z" id="bQJsLOz3t"></path></defs><g><g><g><use xlink:href="#h1U8N33mh0" opacity="1" fill="#000000" fill-opacity="1"></use><g><use xlink:href="#h1U8N33mh0" opacity="1" fill-opacity="0" stroke="#000000" stroke-width="1" stroke-opacity="0"></use></g></g><g><use xlink:href="#a2c7P7ThOk" opacity="1" fill="#000000" fill-opacity="1"></use><g><use xlink:href="#a2c7P7ThOk" opacity="1" fill-opacity="0" stroke="#000000" stroke-width="1" stroke-opacity="0"></use></g></g><g><use xlink:href="#b31kJRI1T" opacity="1" fill="#000000" fill-opacity="1"></use><g><use xlink:href="#b31kJRI1T" opacity="1" fill-opacity="0" stroke="#000000" stroke-width="1" stroke-opacity="0"></use></g></g><g><use xlink:href="#bQJsLOz3t" opacity="1" fill="#ffffff" fill-opacity="1"></use><g><use xlink:href="#bQJsLOz3t" opacity="1" fill-opacity="0" stroke="#000000" stroke-width="1" stroke-opacity="0"></use></g></g></g></g></svg>