<?xml version="1.0" encoding="UTF-8" standalone="no"?>
<!-- Created with Inkscape (http://www.inkscape.org/) -->

<svg
   xmlns:dc="http://purl.org/dc/elements/1.1/"
   xmlns:cc="http://creativecommons.org/ns#"
   xmlns:rdf="http://www.w3.org/1999/02/22-rdf-syntax-ns#"
   xmlns:svg="http://www.w3.org/2000/svg"
   xmlns="http://www.w3.org/2000/svg"
   xmlns:sodipodi="http://sodipodi.sourceforge.net/DTD/sodipodi-0.dtd"
   xmlns:inkscape="http://www.inkscape.org/namespaces/inkscape"
   version="1.1"
   id="svg30"
   width="1204"
   height="720"
   viewBox="0 0 1204 720"
   sodipodi:docname="SVLogo_weiss.svg"
   inkscape:version="0.92.3 (2405546, 2018-03-11)">
  <metadata
     id="metadata36">
    <rdf:RDF>
      <cc:Work
         rdf:about="">
        <dc:format>image/svg+xml</dc:format>
        <dc:type
           rdf:resource="http://purl.org/dc/dcmitype/StillImage" />
        <dc:title></dc:title>
      </cc:Work>
    </rdf:RDF>
  </metadata>
  <defs
     id="defs34" />
  <sodipodi:namedview
     pagecolor="#ffffff"
     bordercolor="#666666"
     borderopacity="1"
     objecttolerance="10"
     gridtolerance="10"
     guidetolerance="10"
     inkscape:pageopacity="0"
     inkscape:pageshadow="2"
     inkscape:window-width="1920"
     inkscape:window-height="1017"
     id="namedview32"
     showgrid="false"
     inkscape:zoom="1.1777778"
     inkscape:cx="918.50622"
     inkscape:cy="340.58911"
     inkscape:window-x="-8"
     inkscape:window-y="-8"
     inkscape:window-maximized="1"
     inkscape:current-layer="svg30" />
  <path
     style="fill:#000000"
     d="M 714.07006,571.0345 C 702.08195,566.59202 694.39783,556.3889 688.43815,537 c -7.86458,-25.5862 -10.71147,-33.91994 -22.88784,-67 -15.45706,-41.99284 -19.84174,-52.53723 -33.05851,-79.5 -10.89931,-22.23506 -13.14376,-28.655 -11.51535,-32.93806 1.20607,-3.17219 4.04865,-3.32758 8.66626,-0.47374 3.46236,2.13985 19.64859,23.1415 33.84338,43.9118 7.88851,11.54273 17.1096,29.57338 26.08201,51 5.51731,13.17564 37.75137,77.59055 40.15816,80.25002 1.47154,1.62602 1.73935,1.63858 3.37505,0.15829 0.97718,-0.88433 3.86345,-8.20047 6.41394,-16.25809 15.51132,-49.00406 19.38303,-59.59007 30.22834,-82.65022 20.50101,-43.59087 48.52253,-81.27079 91.54152,-123.09386 38.45751,-37.3884 67.30903,-59.63632 95.21489,-73.42191 18.66616,-9.22115 35.57594,-13.95166 33.85671,-9.47143 -0.31928,0.83205 -6.71766,6.38689 -14.21861,12.34411 -18.97279,15.06809 -29.47713,25.28041 -51.56592,50.13244 -48.06345,54.07605 -61.93428,72.03637 -94.96034,122.95722 -33.28584,51.32138 -40.39715,65.95524 -55.18121,113.55343 -7.20608,23.20042 -13.13122,35.59911 -19.20589,40.18938 -5.90772,4.46412 -9.86725,5.45526 -23.72474,5.93869 -10.23956,0.35722 -12.79659,0.12344 -17.42994,-1.59357 z M 479.5,569.35067 c -14.63596,-1.14572 -33.28503,-6.2091 -45.5129,-12.35716 C 402.31187,541.06752 373.38441,510.03087 349.64332,466.5 335.77514,441.07175 324.27621,409 329.0274,409 c 0.56507,0 5.90957,4.62436 11.87665,10.27636 5.96709,5.65199 15.45713,13.63949 21.08897,17.75 5.63184,4.1105 16.59985,12.20992 24.37335,17.9987 21.62894,16.10669 26.47497,19.3789 35.13363,23.72339 17.88636,8.97451 35.72765,12.3325 55.09268,10.36924 40.58323,-4.11441 62.77406,-23.93205 59.34668,-52.99991 -1.35448,-11.48748 -7.05863,-18.65345 -15.77932,-19.82314 -3.21516,-0.43124 -5.64563,0.24389 -12.88774,3.57993 -4.90893,2.26127 -11.31481,4.56455 -14.2353,5.11841 -12.52001,2.37437 -30.15977,0.52224 -46.79255,-4.9131 C 411.30231,408.66132 382.87674,381.38209 361.2364,338.5 c -15.71432,-31.1392 -23.90636,-62.66003 -24.94971,-96 -0.6062,-19.37072 0.66695,-28.74007 5.85277,-43.07179 8.95291,-24.74257 34.71014,-52.36383 61.90353,-66.38345 17.57247,-9.05953 33.75116,-13.18973 51.45701,-13.13627 14.29948,0.0432 21.92473,2.15975 40,11.103 23.28698,11.52189 36.66279,23.20869 44.0484,38.48627 4.3801,9.06051 8.27681,21.01036 7.20179,22.08539 -1.11889,1.11889 -4.94351,-1.80251 -17.8335,-13.62195 -15.5771,-14.28339 -20.32648,-17.67599 -28.15659,-20.113 -10.6453,-3.31319 -35.96407,-1.99581 -52.63631,2.73876 -20.67216,5.87046 -43.92161,21.25059 -57.12379,37.78891 -11.59922,14.53029 -22.7717,36.21715 -25.56858,49.63104 -4.18417,20.06737 8.54761,41.52754 37.84742,63.79406 12.66159,9.62224 30.94033,16.66448 46.33456,17.85131 10.76833,0.83019 16.34925,-0.91343 43.67408,-13.64488 23.65428,-11.02123 31.49296,-13.56201 38.59972,-12.51145 16.30498,2.41029 38.95175,17.44951 53.98909,35.85297 17.01253,20.8208 28.59164,44.64512 34.33786,70.65108 2.869,12.98435 3.11814,41.30334 0.47806,54.33927 -12.16653,60.07483 -56.76819,99.05678 -119.71073,104.62746 -11.20931,0.99208 -13.2475,1.0285 -21.48148,0.38394 z m 12.64466,-148.3148 c 8.45509,-2.61305 14.95392,-6.87212 23.05683,-15.11048 13.69808,-13.92708 24.76554,-31.77676 29.17223,-47.04918 4.64712,-16.10572 5.29178,-34.80299 1.45771,-42.27862 -1.61478,-3.14848 -5.98785,-7.59665 -9.03177,-9.18687 -7.08948,-3.70371 -14.58356,-1.47878 -43.12699,12.80407 -22.36551,11.19147 -29.66961,13.23982 -44.61743,12.51242 -17.81485,-0.86691 -31.9376,-5.8 -46.55524,-16.26178 -20.0497,-14.34948 -45.22255,-50.72475 -55.52979,-80.24164 -3.55138,-10.17012 -5.11086,-12.87293 -6.81851,-11.81755 -1.40627,0.86913 -1.45758,8.26855 -0.16359,23.59376 3.10836,36.81355 8.24355,57.19613 20.65908,82 26.11759,52.17798 58.04306,81.7571 98.29372,91.06965 10.6516,2.4644 25.16817,2.44963 33.20375,-0.0338 z m -33.41019,-120.0654 c -9.04743,-2.27216 -17.52882,-8.91216 -21.94298,-17.17898 C 434.8417,280.13994 434.5,278.00882 434.5,269.5 c 0,-8.51109 0.34145,-10.6395 2.29331,-14.29506 3.53466,-6.61993 8.82968,-11.87237 15.04615,-14.92516 4.86285,-2.38805 6.85836,-2.77609 14.16054,-2.75358 7.73697,0.0239 9.06787,0.33175 14.82601,3.42984 11.99489,6.45371 17.71382,16.59917 16.93557,30.04396 -0.72539,12.53168 -7.42451,22.66726 -18.261,27.62837 -5.87388,2.68915 -15.19717,3.74067 -20.76611,2.3421 z"
     id="path40"
     inkscape:connector-curvature="0"
     inkscape:export-filename="C:\Users\Thorben\Desktop\LogoV1.png"
     inkscape:export-xdpi="96"
     inkscape:export-ydpi="96" />
  <path
     style="fill:#ffffff"
     d="m 474.21698,568.41653 c -21.76206,-2.73161 -42.24982,-11.17719 -61.59401,-25.39062 -9.06732,-6.66235 -28.3027,-25.92618 -36.42488,-36.47874 -19.29651,-25.07056 -36.46795,-56.98421 -45.01137,-83.65499 -2.55095,-7.96357 -3.32367,-13.54632 -1.79879,-12.99595 0.43128,0.15566 5.30274,4.34631 10.82547,9.31257 13.5517,12.18623 15.95122,14.0851 41.88094,33.14283 27.38832,20.12975 30.85003,22.47976 39.48114,26.802 14.62325,7.32298 28.12726,10.56734 44.15094,10.60735 17.26434,0.0431 33.80595,-3.57805 46.69811,-10.2228 7.62227,-3.92858 17.13311,-13.22866 20.13533,-19.68913 7.11166,-15.30358 4.44039,-35.33581 -5.534,-41.50034 -5.72571,-3.53867 -9.17537,-3.28911 -21.07264,1.52444 -17.00787,6.88128 -29.11598,7.41252 -50.5662,2.21862 C 411.46828,411.4574 375.58274,375.29121 352.92668,318.83013 337.52833,280.45595 332.26825,234.5264 340.12336,207.03517 c 8.17044,-28.59477 35.2527,-59.05272 66.1691,-74.41678 15.68757,-7.79603 28.51073,-11.28711 44.57547,-12.13561 15.2493,-0.80543 24.33781,1.33694 42.32923,9.97795 20.2782,9.73932 35.66856,21.80394 42.77483,33.53153 4.66806,7.70375 11.67118,26.15703 10.40664,27.42157 -0.5823,0.5823 -5.74265,-3.60288 -19.06436,-15.46168 -21.30419,-18.9647 -22.94422,-19.66458 -45.88031,-19.57918 -19.40286,0.0722 -28.95388,1.68577 -42.83143,7.23588 -16.36331,6.54426 -35.15606,19.62219 -45.3137,31.53397 -10.23897,12.00714 -21.75637,32.21355 -26.50367,46.49869 -6.20663,18.6764 -0.21305,36.06957 19.1461,55.56142 20.48761,20.62803 45.18799,32.74047 66.76628,32.74047 8.57636,0 14.33895,-1.75944 32.55718,-9.94038 34.87766,-15.6619 39.74541,-17.26255 47.89067,-15.74778 15.60011,2.90114 37.11232,17.24828 51.23074,34.1673 17.65752,21.16015 31.54031,49.98509 35.99102,74.7284 2.23609,12.43135 2.01148,40.84986 -0.41369,52.34244 -3.15426,14.94761 -10.46745,33.36995 -17.78094,44.7912 -18.46346,28.83377 -48.15189,48.62156 -83.38007,55.57407 -17.06383,3.36767 -31.5168,4.19702 -44.57547,2.55788 z m 20.10457,-147.84402 c 8.28042,-3.02638 13.09237,-6.4564 22.04826,-15.71634 22.16687,-22.91942 33.11111,-48.81184 31.96449,-75.6232 -0.29827,-6.9746 -0.79299,-9.83364 -2.15427,-12.44995 -3.31794,-6.37692 -10.40987,-11.46226 -15.98507,-11.46226 -4.2274,0 -17.02419,4.9582 -33.94047,13.15046 -9.31874,4.51289 -20.38185,9.41026 -24.58468,10.88302 -7.20647,2.52532 -8.31821,2.6754 -19.5283,2.63622 -9.47603,-0.0331 -13.43656,-0.43437 -19.5283,-1.97844 -24.74456,-6.272 -43.98486,-22.17194 -64.29753,-53.13466 -7.94282,-12.10728 -16.2335,-28.1662 -20.60197,-39.90566 -1.73772,-4.66981 -3.70155,-9.54127 -4.36406,-10.82547 -1.33537,-2.58844 -3.24896,-3.05805 -4.04182,-0.99188 -2.17021,5.65548 2.4653,50.02493 7.13866,68.32865 7.26316,28.447 25.99666,63.19957 47.0769,87.33249 19.22709,22.01142 46.00194,37.87377 70.22299,41.60255 9.30299,1.43217 24.04111,0.54257 30.57517,-1.84553 z"
     id="path15"
     inkscape:connector-curvature="0" />
  <path
     style="fill:#ffffff"
     d="m 720.01887,571.87727 c -9.57804,-1.11603 -19.01016,-8.23043 -24.4548,-18.44561 -1.52272,-2.85693 -6.72708,-17.15369 -11.56522,-31.77058 -17.71054,-53.50669 -33.05605,-93.18615 -49.35298,-127.61391 -6.18949,-13.07547 -11.88051,-25.93391 -12.64671,-28.5743 -1.57145,-5.4153 -1.08777,-8.89849 1.34278,-9.66991 4.32985,-1.37425 10.69033,5.21625 28.34112,29.36602 16.53115,22.61789 23.12592,34.30953 36.85586,65.34045 9.30767,21.03621 40.00005,81.58385 41.93408,82.72443 1.23247,0.72684 1.8539,0.52419 3.11963,-1.01734 0.86933,-1.05875 6.38909,-16.53281 12.26616,-34.3868 11.82118,-35.91168 16.00461,-46.84999 25.28767,-66.1191 21.79333,-45.23698 48.73291,-80.60272 96.36697,-126.50859 34.11656,-32.8788 62.19204,-54.21443 88.54317,-67.28735 16.88665,-8.37754 33.96226,-13.83572 33.96226,-10.85594 0,0.38514 -6.20873,5.80835 -13.79717,12.05158 -22.86144,18.80877 -43.14781,39.69541 -77.50203,79.79534 -28.81233,33.63117 -43.39222,53.40591 -71.05194,96.36792 -31.17288,48.41881 -36.78713,59.82595 -51.61684,104.87629 -4.53801,13.78572 -9.86284,28.44227 -11.83296,32.57008 -6.43719,13.48725 -12.91704,18.21688 -25.88882,18.89621 -3.76638,0.19724 -8.37627,0.45911 -10.2442,0.58193 -1.86792,0.12282 -5.49764,-0.0216 -8.06603,-0.32082 z"
     id="path17"
     inkscape:connector-curvature="0" />
  <path
     style="fill:#ffffff;stroke-width:0.8490566"
     d="m 456.67903,299.89216 c -8.00827,-2.86062 -15.85393,-9.54567 -19.537,-16.64688 -1.75482,-3.38341 -1.98113,-4.98698 -1.9771,-14.00943 0.004,-8.81483 0.25231,-10.65261 1.84197,-13.62926 3.12049,-5.84313 9.30374,-11.97852 14.88038,-14.7652 4.77326,-2.38522 5.89741,-2.5961 13.83914,-2.5961 7.89994,0 9.08129,0.21858 13.72645,2.53979 6.52257,3.25937 12.7075,9.36523 15.48838,15.29039 1.88782,4.02233 2.18972,5.80771 2.17739,12.87661 -0.0138,7.87961 -0.14899,8.47052 -3.39196,14.82166 -4.23136,8.28685 -9.68302,13.03122 -17.88485,15.56451 -6.38935,1.97347 -14.53003,2.20878 -19.1628,0.55391 z"
     id="path19"
     inkscape:connector-curvature="0" />
</svg>
