<?xml version="1.0" encoding="UTF-8" standalone="no"?>
<!DOCTYPE svg PUBLIC "-//W3C//DTD SVG 1.1//EN"
 "http://www.w3.org/Graphics/SVG/1.1/DTD/svg11.dtd">
<!-- Generated by graphviz version 2.47.0 (20210316.0004)
 -->
<!-- Title: dependencies Pages: 1 -->
<svg width="1086pt" height="211pt"
 viewBox="0.00 0.00 1086.00 211.00" xmlns="http://www.w3.org/2000/svg" xmlns:xlink="http://www.w3.org/1999/xlink">
<g id="graph0" class="graph" transform="scale(1 1) rotate(0) translate(4 207)">
<title>dependencies</title>
<polygon fill="white" stroke="transparent" points="-4,4 -4,-207 1082,-207 1082,4 -4,4"/>
<text text-anchor="start" x="518.01" y="-42.4" font-family="sans-serif" font-weight="bold" font-size="14.00">Legend</text>
<polygon fill="#ffffb3" stroke="transparent" points="305,-10 305,-30 325,-30 325,-10 305,-10"/>
<text text-anchor="start" x="328.63" y="-15.4" font-family="sans-serif" font-size="14.00"> &#160;Declarations</text>
<polygon fill="#8dd3c7" stroke="transparent" points="418,-10 418,-30 438,-30 438,-10 418,-10"/>
<text text-anchor="start" x="441.73" y="-15.4" font-family="sans-serif" font-size="14.00"> &#160;Module</text>
<polygon fill="#80b1d3" stroke="transparent" points="504,-10 504,-30 524,-30 524,-10 504,-10"/>
<text text-anchor="start" x="527.78" y="-15.4" font-family="sans-serif" font-size="14.00"> &#160;Bootstrap</text>
<polygon fill="#fdb462" stroke="transparent" points="601,-10 601,-30 621,-30 621,-10 601,-10"/>
<text text-anchor="start" x="624.67" y="-15.4" font-family="sans-serif" font-size="14.00"> &#160;Providers</text>
<polygon fill="#fb8072" stroke="transparent" points="697,-10 697,-30 717,-30 717,-10 697,-10"/>
<text text-anchor="start" x="720.73" y="-15.4" font-family="sans-serif" font-size="14.00"> &#160;Exports</text>
<g id="clust1" class="cluster">
<title>cluster_AppBodyModule</title>
<polygon fill="none" stroke="black" stroke-dasharray="1,5" points="8,-70 8,-195 1070,-195 1070,-70 8,-70"/>
</g>
<g id="clust2" class="cluster">
<title>cluster_AppBodyModule_declarations</title>
<polygon fill="none" stroke="black" points="446,-78 446,-130 1062,-130 1062,-78 446,-78"/>
</g>
<g id="clust7" class="cluster">
<title>cluster_AppBodyModule_imports</title>
<polygon fill="none" stroke="black" points="16,-78 16,-130 438,-130 438,-78 16,-78"/>
</g>
<!-- HeaderComponent -->
<g id="node1" class="node">
<title>HeaderComponent</title>
<polygon fill="#ffffb3" stroke="black" points="1053.74,-122 932.26,-122 932.26,-86 1053.74,-86 1053.74,-122"/>
<text text-anchor="middle" x="993" y="-99.8" font-family="Times,serif" font-size="14.00">HeaderComponent</text>
</g>
<!-- AppBodyModule -->
<g id="node5" class="node">
<title>AppBodyModule</title>
<polygon fill="#8dd3c7" stroke="black" points="578.99,-187 575.99,-191 554.99,-191 551.99,-187 465.01,-187 465.01,-151 578.99,-151 578.99,-187"/>
<text text-anchor="middle" x="522" y="-164.8" font-family="Times,serif" font-size="14.00">AppBodyModule</text>
</g>
<!-- HeaderComponent&#45;&gt;AppBodyModule -->
<g id="edge1" class="edge">
<title>HeaderComponent&#45;&gt;AppBodyModule</title>
<path fill="none" stroke="black" d="M993,-122.29C993,-144.21 993,-178 993,-178 993,-178 589.28,-178 589.28,-178"/>
<polygon fill="black" stroke="black" points="589.28,-174.5 579.28,-178 589.28,-181.5 589.28,-174.5"/>
</g>
<!-- HeaderMobileComponent -->
<g id="node2" class="node">
<title>HeaderMobileComponent</title>
<polygon fill="#ffffb3" stroke="black" points="914.18,-122 751.82,-122 751.82,-86 914.18,-86 914.18,-122"/>
<text text-anchor="middle" x="833" y="-99.8" font-family="Times,serif" font-size="14.00">HeaderMobileComponent</text>
</g>
<!-- HeaderMobileComponent&#45;&gt;AppBodyModule -->
<g id="edge2" class="edge">
<title>HeaderMobileComponent&#45;&gt;AppBodyModule</title>
<path fill="none" stroke="black" d="M833,-122.11C833,-141.34 833,-169 833,-169 833,-169 589.04,-169 589.04,-169"/>
<polygon fill="black" stroke="black" points="589.04,-165.5 579.04,-169 589.04,-172.5 589.04,-165.5"/>
</g>
<!-- SettingsComponent -->
<g id="node3" class="node">
<title>SettingsComponent</title>
<polygon fill="#ffffb3" stroke="black" points="734.45,-122 607.55,-122 607.55,-86 734.45,-86 734.45,-122"/>
<text text-anchor="middle" x="671" y="-99.8" font-family="Times,serif" font-size="14.00">SettingsComponent</text>
</g>
<!-- SettingsComponent&#45;&gt;AppBodyModule -->
<g id="edge3" class="edge">
<title>SettingsComponent&#45;&gt;AppBodyModule</title>
<path fill="none" stroke="black" d="M671,-122.03C671,-138.4 671,-160 671,-160 671,-160 589.18,-160 589.18,-160"/>
<polygon fill="black" stroke="black" points="589.18,-156.5 579.18,-160 589.18,-163.5 589.18,-156.5"/>
</g>
<!-- AppBodyComponent -->
<g id="node4" class="node">
<title>AppBodyComponent</title>
<polygon fill="#ffffb3" stroke="black" points="589.78,-122 454.22,-122 454.22,-86 589.78,-86 589.78,-122"/>
<text text-anchor="middle" x="522" y="-99.8" font-family="Times,serif" font-size="14.00">AppBodyComponent</text>
</g>
<!-- AppBodyComponent&#45;&gt;AppBodyModule -->
<g id="edge4" class="edge">
<title>AppBodyComponent&#45;&gt;AppBodyModule</title>
<path fill="none" stroke="black" d="M522,-122.11C522,-122.11 522,-140.99 522,-140.99"/>
<polygon fill="black" stroke="black" points="518.5,-140.99 522,-150.99 525.5,-140.99 518.5,-140.99"/>
</g>
<!-- CommonModule -->
<g id="node6" class="node">
<title>CommonModule</title>
<polygon fill="#8dd3c7" stroke="black" points="429.67,-122 426.67,-126 405.67,-126 402.67,-122 318.33,-122 318.33,-86 429.67,-86 429.67,-122"/>
<text text-anchor="middle" x="374" y="-99.8" font-family="Times,serif" font-size="14.00">CommonModule</text>
</g>
<!-- CommonModule&#45;&gt;AppBodyModule -->
<g id="edge5" class="edge">
<title>CommonModule&#45;&gt;AppBodyModule</title>
<path fill="none" stroke="black" d="M374,-122.03C374,-138.4 374,-160 374,-160 374,-160 454.78,-160 454.78,-160"/>
<polygon fill="black" stroke="black" points="454.78,-163.5 464.78,-160 454.78,-156.5 454.78,-163.5"/>
</g>
<!-- SharedModule -->
<g id="node7" class="node">
<title>SharedModule</title>
<polygon fill="#8dd3c7" stroke="black" points="300.42,-122 297.42,-126 276.42,-126 273.42,-122 201.58,-122 201.58,-86 300.42,-86 300.42,-122"/>
<text text-anchor="middle" x="251" y="-99.8" font-family="Times,serif" font-size="14.00">SharedModule</text>
</g>
<!-- SharedModule&#45;&gt;AppBodyModule -->
<g id="edge6" class="edge">
<title>SharedModule&#45;&gt;AppBodyModule</title>
<path fill="none" stroke="black" d="M251,-122.11C251,-141.34 251,-169 251,-169 251,-169 454.86,-169 454.86,-169"/>
<polygon fill="black" stroke="black" points="454.86,-172.5 464.86,-169 454.86,-165.5 454.86,-172.5"/>
</g>
<!-- AppBodyRoutingModule -->
<g id="node8" class="node">
<title>AppBodyRoutingModule</title>
<polygon fill="#8dd3c7" stroke="black" points="183.61,-122 180.61,-126 159.61,-126 156.61,-122 24.39,-122 24.39,-86 183.61,-86 183.61,-122"/>
<text text-anchor="middle" x="104" y="-99.8" font-family="Times,serif" font-size="14.00">AppBodyRoutingModule</text>
</g>
<!-- AppBodyRoutingModule&#45;&gt;AppBodyModule -->
<g id="edge7" class="edge">
<title>AppBodyRoutingModule&#45;&gt;AppBodyModule</title>
<path fill="none" stroke="black" d="M104,-122.29C104,-144.21 104,-178 104,-178 104,-178 454.76,-178 454.76,-178"/>
<polygon fill="black" stroke="black" points="454.76,-181.5 464.76,-178 454.76,-174.5 454.76,-181.5"/>
</g>
</g>
</svg>
