<?xml version="1.0" encoding="UTF-8" standalone="no"?>
<!DOCTYPE svg PUBLIC "-//W3C//DTD SVG 1.1//EN"
 "http://www.w3.org/Graphics/SVG/1.1/DTD/svg11.dtd">
<!-- Generated by graphviz version 2.47.0 (20210316.0004)
 -->
<!-- Title: dependencies Pages: 1 -->
<svg width="647pt" height="211pt"
 viewBox="0.00 0.00 647.00 211.00" xmlns="http://www.w3.org/2000/svg" xmlns:xlink="http://www.w3.org/1999/xlink">
<g id="graph0" class="graph" transform="scale(1 1) rotate(0) translate(4 207)">
<title>dependencies</title>
<polygon fill="white" stroke="transparent" points="-4,4 -4,-207 643,-207 643,4 -4,4"/>
<text text-anchor="start" x="298.51" y="-42.4" font-family="sans-serif" font-weight="bold" font-size="14.00">Legend</text>
<polygon fill="#ffffb3" stroke="transparent" points="85.5,-10 85.5,-30 105.5,-30 105.5,-10 85.5,-10"/>
<text text-anchor="start" x="109.13" y="-15.4" font-family="sans-serif" font-size="14.00"> &#160;Declarations</text>
<polygon fill="#8dd3c7" stroke="transparent" points="198.5,-10 198.5,-30 218.5,-30 218.5,-10 198.5,-10"/>
<text text-anchor="start" x="222.23" y="-15.4" font-family="sans-serif" font-size="14.00"> &#160;Module</text>
<polygon fill="#80b1d3" stroke="transparent" points="284.5,-10 284.5,-30 304.5,-30 304.5,-10 284.5,-10"/>
<text text-anchor="start" x="308.28" y="-15.4" font-family="sans-serif" font-size="14.00"> &#160;Bootstrap</text>
<polygon fill="#fdb462" stroke="transparent" points="381.5,-10 381.5,-30 401.5,-30 401.5,-10 381.5,-10"/>
<text text-anchor="start" x="405.17" y="-15.4" font-family="sans-serif" font-size="14.00"> &#160;Providers</text>
<polygon fill="#fb8072" stroke="transparent" points="477.5,-10 477.5,-30 497.5,-30 497.5,-10 477.5,-10"/>
<text text-anchor="start" x="501.23" y="-15.4" font-family="sans-serif" font-size="14.00"> &#160;Exports</text>
<g id="clust1" class="cluster">
<title>cluster_NachhilfeModule</title>
<polygon fill="none" stroke="black" stroke-dasharray="1,5" points="8,-70 8,-195 631,-195 631,-70 8,-70"/>
</g>
<g id="clust3" class="cluster">
<title>cluster_NachhilfeModule_imports</title>
<polygon fill="none" stroke="black" points="16,-78 16,-130 623,-130 623,-78 16,-78"/>
</g>
<!-- NachhilfeGModule -->
<g id="node1" class="node">
<title>NachhilfeGModule</title>
<polygon fill="#8dd3c7" stroke="black" points="615.35,-122 612.35,-126 591.35,-126 588.35,-122 490.65,-122 490.65,-86 615.35,-86 615.35,-122"/>
<text text-anchor="middle" x="553" y="-99.8" font-family="Times,serif" font-size="14.00">NachhilfeGModule</text>
</g>
<!-- NachhilfeModule -->
<g id="node5" class="node">
<title>NachhilfeModule</title>
<polygon fill="#8dd3c7" stroke="black" points="395.24,-187 392.24,-191 371.24,-191 368.24,-187 280.76,-187 280.76,-151 395.24,-151 395.24,-187"/>
<text text-anchor="middle" x="338" y="-164.8" font-family="Times,serif" font-size="14.00">NachhilfeModule</text>
</g>
<!-- NachhilfeGModule&#45;&gt;NachhilfeModule -->
<g id="edge1" class="edge">
<title>NachhilfeGModule&#45;&gt;NachhilfeModule</title>
<path fill="none" stroke="black" d="M553,-122.11C553,-141.34 553,-169 553,-169 553,-169 405.33,-169 405.33,-169"/>
<polygon fill="black" stroke="black" points="405.33,-165.5 395.33,-169 405.33,-172.5 405.33,-165.5"/>
</g>
<!-- NachhilfeNModule -->
<g id="node2" class="node">
<title>NachhilfeNModule</title>
<polygon fill="#8dd3c7" stroke="black" points="472.35,-122 469.35,-126 448.35,-126 445.35,-122 347.65,-122 347.65,-86 472.35,-86 472.35,-122"/>
<text text-anchor="middle" x="410" y="-99.8" font-family="Times,serif" font-size="14.00">NachhilfeNModule</text>
</g>
<!-- NachhilfeNModule&#45;&gt;NachhilfeModule -->
<g id="edge2" class="edge">
<title>NachhilfeNModule&#45;&gt;NachhilfeModule</title>
<path fill="none" stroke="black" d="M371.47,-122.11C371.47,-122.11 371.47,-140.99 371.47,-140.99"/>
<polygon fill="black" stroke="black" points="367.97,-140.99 371.47,-150.99 374.97,-140.99 367.97,-140.99"/>
</g>
<!-- NachhilfeWModule -->
<g id="node3" class="node">
<title>NachhilfeWModule</title>
<polygon fill="#8dd3c7" stroke="black" points="329.96,-122 326.96,-126 305.96,-126 302.96,-122 202.04,-122 202.04,-86 329.96,-86 329.96,-122"/>
<text text-anchor="middle" x="266" y="-99.8" font-family="Times,serif" font-size="14.00">NachhilfeWModule</text>
</g>
<!-- NachhilfeWModule&#45;&gt;NachhilfeModule -->
<g id="edge3" class="edge">
<title>NachhilfeWModule&#45;&gt;NachhilfeModule</title>
<path fill="none" stroke="black" d="M305.3,-122.11C305.3,-122.11 305.3,-140.99 305.3,-140.99"/>
<polygon fill="black" stroke="black" points="301.8,-140.99 305.3,-150.99 308.8,-140.99 301.8,-140.99"/>
</g>
<!-- NachhilfeRoutingModule -->
<g id="node4" class="node">
<title>NachhilfeRoutingModule</title>
<polygon fill="#8dd3c7" stroke="black" points="183.86,-122 180.86,-126 159.86,-126 156.86,-122 24.14,-122 24.14,-86 183.86,-86 183.86,-122"/>
<text text-anchor="middle" x="104" y="-99.8" font-family="Times,serif" font-size="14.00">NachhilfeRoutingModule</text>
</g>
<!-- NachhilfeRoutingModule&#45;&gt;NachhilfeModule -->
<g id="edge4" class="edge">
<title>NachhilfeRoutingModule&#45;&gt;NachhilfeModule</title>
<path fill="none" stroke="black" d="M104,-122.11C104,-141.34 104,-169 104,-169 104,-169 270.76,-169 270.76,-169"/>
<polygon fill="black" stroke="black" points="270.76,-172.5 280.76,-169 270.76,-165.5 270.76,-172.5"/>
</g>
</g>
</svg>
