<?xml version="1.0" encoding="UTF-8" standalone="no"?>
<!DOCTYPE svg PUBLIC "-//W3C//DTD SVG 1.1//EN"
 "http://www.w3.org/Graphics/SVG/1.1/DTD/svg11.dtd">
<!-- Generated by graphviz version 2.47.0 (20210316.0004)
 -->
<!-- Title: dependencies Pages: 1 -->
<svg width="504pt" height="211pt"
 viewBox="0.00 0.00 504.00 211.00" xmlns="http://www.w3.org/2000/svg" xmlns:xlink="http://www.w3.org/1999/xlink">
<g id="graph0" class="graph" transform="scale(1 1) rotate(0) translate(4 207)">
<title>dependencies</title>
<polygon fill="white" stroke="transparent" points="-4,4 -4,-207 500,-207 500,4 -4,4"/>
<text text-anchor="start" x="227.01" y="-42.4" font-family="sans-serif" font-weight="bold" font-size="14.00">Legend</text>
<polygon fill="#ffffb3" stroke="transparent" points="14,-10 14,-30 34,-30 34,-10 14,-10"/>
<text text-anchor="start" x="37.63" y="-15.4" font-family="sans-serif" font-size="14.00"> &#160;Declarations</text>
<polygon fill="#8dd3c7" stroke="transparent" points="127,-10 127,-30 147,-30 147,-10 127,-10"/>
<text text-anchor="start" x="150.73" y="-15.4" font-family="sans-serif" font-size="14.00"> &#160;Module</text>
<polygon fill="#80b1d3" stroke="transparent" points="213,-10 213,-30 233,-30 233,-10 213,-10"/>
<text text-anchor="start" x="236.78" y="-15.4" font-family="sans-serif" font-size="14.00"> &#160;Bootstrap</text>
<polygon fill="#fdb462" stroke="transparent" points="310,-10 310,-30 330,-30 330,-10 310,-10"/>
<text text-anchor="start" x="333.67" y="-15.4" font-family="sans-serif" font-size="14.00"> &#160;Providers</text>
<polygon fill="#fb8072" stroke="transparent" points="406,-10 406,-30 426,-30 426,-10 406,-10"/>
<text text-anchor="start" x="429.73" y="-15.4" font-family="sans-serif" font-size="14.00"> &#160;Exports</text>
<g id="clust1" class="cluster">
<title>cluster_GreetingModule</title>
<polygon fill="none" stroke="black" stroke-dasharray="1,5" points="106,-70 106,-195 390,-195 390,-70 106,-70"/>
</g>
<g id="clust4" class="cluster">
<title>cluster_GreetingModule_imports</title>
<polygon fill="none" stroke="black" points="268,-78 268,-130 382,-130 382,-78 268,-78"/>
</g>
<g id="clust2" class="cluster">
<title>cluster_GreetingModule_declarations</title>
<polygon fill="none" stroke="black" points="114,-78 114,-130 260,-130 260,-78 114,-78"/>
</g>
<!-- GreetingComponent -->
<g id="node1" class="node">
<title>GreetingComponent</title>
<polygon fill="#ffffb3" stroke="black" points="252.31,-122 121.69,-122 121.69,-86 252.31,-86 252.31,-122"/>
<text text-anchor="middle" x="187" y="-99.8" font-family="Times,serif" font-size="14.00">GreetingComponent</text>
</g>
<!-- GreetingModule -->
<g id="node2" class="node">
<title>GreetingModule</title>
<polygon fill="#8dd3c7" stroke="black" points="310.03,-187 307.03,-191 286.03,-191 283.03,-187 201.97,-187 201.97,-151 310.03,-151 310.03,-187"/>
<text text-anchor="middle" x="256" y="-164.8" font-family="Times,serif" font-size="14.00">GreetingModule</text>
</g>
<!-- GreetingComponent&#45;&gt;GreetingModule -->
<g id="edge1" class="edge">
<title>GreetingComponent&#45;&gt;GreetingModule</title>
<path fill="none" stroke="black" d="M226.95,-122.11C226.95,-122.11 226.95,-140.99 226.95,-140.99"/>
<polygon fill="black" stroke="black" points="223.45,-140.99 226.95,-150.99 230.45,-140.99 223.45,-140.99"/>
</g>
<!-- SharedModule -->
<g id="node3" class="node">
<title>SharedModule</title>
<polygon fill="#8dd3c7" stroke="black" points="374.42,-122 371.42,-126 350.42,-126 347.42,-122 275.58,-122 275.58,-86 374.42,-86 374.42,-122"/>
<text text-anchor="middle" x="325" y="-99.8" font-family="Times,serif" font-size="14.00">SharedModule</text>
</g>
<!-- SharedModule&#45;&gt;GreetingModule -->
<g id="edge2" class="edge">
<title>SharedModule&#45;&gt;GreetingModule</title>
<path fill="none" stroke="black" d="M293.03,-122.11C293.03,-122.11 293.03,-140.99 293.03,-140.99"/>
<polygon fill="black" stroke="black" points="289.53,-140.99 293.03,-150.99 296.53,-140.99 289.53,-140.99"/>
</g>
</g>
</svg>
