<?xml version="1.0" encoding="UTF-8" standalone="no"?>
<!DOCTYPE svg PUBLIC "-//W3C//DTD SVG 1.1//EN"
 "http://www.w3.org/Graphics/SVG/1.1/DTD/svg11.dtd">
<!-- Generated by graphviz version 2.47.0 (20210316.0004)
 -->
<!-- Title: dependencies Pages: 1 -->
<svg width="506pt" height="211pt"
 viewBox="0.00 0.00 506.00 211.00" xmlns="http://www.w3.org/2000/svg" xmlns:xlink="http://www.w3.org/1999/xlink">
<g id="graph0" class="graph" transform="scale(1 1) rotate(0) translate(4 207)">
<title>dependencies</title>
<polygon fill="white" stroke="transparent" points="-4,4 -4,-207 502,-207 502,4 -4,4"/>
<text text-anchor="start" x="228.01" y="-42.4" font-family="sans-serif" font-weight="bold" font-size="14.00">Legend</text>
<polygon fill="#ffffb3" stroke="transparent" points="15,-10 15,-30 35,-30 35,-10 15,-10"/>
<text text-anchor="start" x="38.63" y="-15.4" font-family="sans-serif" font-size="14.00"> &#160;Declarations</text>
<polygon fill="#8dd3c7" stroke="transparent" points="128,-10 128,-30 148,-30 148,-10 128,-10"/>
<text text-anchor="start" x="151.73" y="-15.4" font-family="sans-serif" font-size="14.00"> &#160;Module</text>
<polygon fill="#80b1d3" stroke="transparent" points="214,-10 214,-30 234,-30 234,-10 214,-10"/>
<text text-anchor="start" x="237.78" y="-15.4" font-family="sans-serif" font-size="14.00"> &#160;Bootstrap</text>
<polygon fill="#fdb462" stroke="transparent" points="311,-10 311,-30 331,-30 331,-10 311,-10"/>
<text text-anchor="start" x="334.67" y="-15.4" font-family="sans-serif" font-size="14.00"> &#160;Providers</text>
<polygon fill="#fb8072" stroke="transparent" points="407,-10 407,-30 427,-30 427,-10 407,-10"/>
<text text-anchor="start" x="430.73" y="-15.4" font-family="sans-serif" font-size="14.00"> &#160;Exports</text>
<g id="clust1" class="cluster">
<title>cluster_NachhilfeNModule</title>
<polygon fill="none" stroke="black" stroke-dasharray="1,5" points="8,-70 8,-195 490,-195 490,-70 8,-70"/>
</g>
<g id="clust5" class="cluster">
<title>cluster_NachhilfeNModule_imports</title>
<polygon fill="none" stroke="black" points="368,-78 368,-130 482,-130 482,-78 368,-78"/>
</g>
<g id="clust2" class="cluster">
<title>cluster_NachhilfeNModule_declarations</title>
<polygon fill="none" stroke="black" points="16,-78 16,-130 360,-130 360,-78 16,-78"/>
</g>
<!-- NachhilfeNComponent -->
<g id="node1" class="node">
<title>NachhilfeNComponent</title>
<polygon fill="#ffffb3" stroke="black" points="352.13,-122 205.87,-122 205.87,-86 352.13,-86 352.13,-122"/>
<text text-anchor="middle" x="279" y="-99.8" font-family="Times,serif" font-size="14.00">NachhilfeNComponent</text>
</g>
<!-- NachhilfeNModule -->
<g id="node3" class="node">
<title>NachhilfeNModule</title>
<polygon fill="#8dd3c7" stroke="black" points="341.35,-187 338.35,-191 317.35,-191 314.35,-187 216.65,-187 216.65,-151 341.35,-151 341.35,-187"/>
<text text-anchor="middle" x="279" y="-164.8" font-family="Times,serif" font-size="14.00">NachhilfeNModule</text>
</g>
<!-- NachhilfeNComponent&#45;&gt;NachhilfeNModule -->
<g id="edge1" class="edge">
<title>NachhilfeNComponent&#45;&gt;NachhilfeNModule</title>
<path fill="none" stroke="black" d="M279,-122.11C279,-122.11 279,-140.99 279,-140.99"/>
<polygon fill="black" stroke="black" points="275.5,-140.99 279,-150.99 282.5,-140.99 275.5,-140.99"/>
</g>
<!-- NachhilfeDiagComponent -->
<g id="node2" class="node">
<title>NachhilfeDiagComponent</title>
<polygon fill="#ffffb3" stroke="black" points="187.74,-122 24.26,-122 24.26,-86 187.74,-86 187.74,-122"/>
<text text-anchor="middle" x="106" y="-99.8" font-family="Times,serif" font-size="14.00">NachhilfeDiagComponent</text>
</g>
<!-- NachhilfeDiagComponent&#45;&gt;NachhilfeNModule -->
<g id="edge2" class="edge">
<title>NachhilfeDiagComponent&#45;&gt;NachhilfeNModule</title>
<path fill="none" stroke="black" d="M106,-122.11C106,-141.34 106,-169 106,-169 106,-169 206.54,-169 206.54,-169"/>
<polygon fill="black" stroke="black" points="206.54,-172.5 216.54,-169 206.54,-165.5 206.54,-172.5"/>
</g>
<!-- SharedModule -->
<g id="node4" class="node">
<title>SharedModule</title>
<polygon fill="#8dd3c7" stroke="black" points="474.42,-122 471.42,-126 450.42,-126 447.42,-122 375.58,-122 375.58,-86 474.42,-86 474.42,-122"/>
<text text-anchor="middle" x="425" y="-99.8" font-family="Times,serif" font-size="14.00">SharedModule</text>
</g>
<!-- SharedModule&#45;&gt;NachhilfeNModule -->
<g id="edge3" class="edge">
<title>SharedModule&#45;&gt;NachhilfeNModule</title>
<path fill="none" stroke="black" d="M425,-122.11C425,-141.34 425,-169 425,-169 425,-169 351.76,-169 351.76,-169"/>
<polygon fill="black" stroke="black" points="351.76,-165.5 341.76,-169 351.76,-172.5 351.76,-165.5"/>
</g>
</g>
</svg>
