<?xml version="1.0" encoding="UTF-8" standalone="no"?>
<!DOCTYPE svg PUBLIC "-//W3C//DTD SVG 1.1//EN"
 "http://www.w3.org/Graphics/SVG/1.1/DTD/svg11.dtd">
<!-- Generated by graphviz version 2.47.0 (20210316.0004)
 -->
<!-- Title: dependencies Pages: 1 -->
<svg width="504pt" height="211pt"
 viewBox="0.00 0.00 504.00 211.00" xmlns="http://www.w3.org/2000/svg" xmlns:xlink="http://www.w3.org/1999/xlink">
<g id="graph0" class="graph" transform="scale(1 1) rotate(0) translate(4 207)">
<title>dependencies</title>
<polygon fill="white" stroke="transparent" points="-4,4 -4,-207 500,-207 500,4 -4,4"/>
<text text-anchor="start" x="227.01" y="-42.4" font-family="sans-serif" font-weight="bold" font-size="14.00">Legend</text>
<polygon fill="#ffffb3" stroke="transparent" points="14,-10 14,-30 34,-30 34,-10 14,-10"/>
<text text-anchor="start" x="37.63" y="-15.4" font-family="sans-serif" font-size="14.00"> &#160;Declarations</text>
<polygon fill="#8dd3c7" stroke="transparent" points="127,-10 127,-30 147,-30 147,-10 127,-10"/>
<text text-anchor="start" x="150.73" y="-15.4" font-family="sans-serif" font-size="14.00"> &#160;Module</text>
<polygon fill="#80b1d3" stroke="transparent" points="213,-10 213,-30 233,-30 233,-10 213,-10"/>
<text text-anchor="start" x="236.78" y="-15.4" font-family="sans-serif" font-size="14.00"> &#160;Bootstrap</text>
<polygon fill="#fdb462" stroke="transparent" points="310,-10 310,-30 330,-30 330,-10 310,-10"/>
<text text-anchor="start" x="333.67" y="-15.4" font-family="sans-serif" font-size="14.00"> &#160;Providers</text>
<polygon fill="#fb8072" stroke="transparent" points="406,-10 406,-30 426,-30 426,-10 406,-10"/>
<text text-anchor="start" x="429.73" y="-15.4" font-family="sans-serif" font-size="14.00"> &#160;Exports</text>
<g id="clust1" class="cluster">
<title>cluster_NachhilfeGModule</title>
<polygon fill="none" stroke="black" stroke-dasharray="1,5" points="98,-70 98,-195 398,-195 398,-70 98,-70"/>
</g>
<g id="clust2" class="cluster">
<title>cluster_NachhilfeGModule_declarations</title>
<polygon fill="none" stroke="black" points="228,-78 228,-130 390,-130 390,-78 228,-78"/>
</g>
<g id="clust4" class="cluster">
<title>cluster_NachhilfeGModule_imports</title>
<polygon fill="none" stroke="black" points="106,-78 106,-130 220,-130 220,-78 106,-78"/>
</g>
<!-- NachhilfeGComponent -->
<g id="node1" class="node">
<title>NachhilfeGComponent</title>
<polygon fill="#ffffb3" stroke="black" points="382.13,-122 235.87,-122 235.87,-86 382.13,-86 382.13,-122"/>
<text text-anchor="middle" x="309" y="-99.8" font-family="Times,serif" font-size="14.00">NachhilfeGComponent</text>
</g>
<!-- NachhilfeGModule -->
<g id="node2" class="node">
<title>NachhilfeGModule</title>
<polygon fill="#8dd3c7" stroke="black" points="300.35,-187 297.35,-191 276.35,-191 273.35,-187 175.65,-187 175.65,-151 300.35,-151 300.35,-187"/>
<text text-anchor="middle" x="238" y="-164.8" font-family="Times,serif" font-size="14.00">NachhilfeGModule</text>
</g>
<!-- NachhilfeGComponent&#45;&gt;NachhilfeGModule -->
<g id="edge1" class="edge">
<title>NachhilfeGComponent&#45;&gt;NachhilfeGModule</title>
<path fill="none" stroke="black" d="M268.05,-122.11C268.05,-122.11 268.05,-140.99 268.05,-140.99"/>
<polygon fill="black" stroke="black" points="264.55,-140.99 268.05,-150.99 271.55,-140.99 264.55,-140.99"/>
</g>
<!-- SharedModule -->
<g id="node3" class="node">
<title>SharedModule</title>
<polygon fill="#8dd3c7" stroke="black" points="212.42,-122 209.42,-126 188.42,-126 185.42,-122 113.58,-122 113.58,-86 212.42,-86 212.42,-122"/>
<text text-anchor="middle" x="163" y="-99.8" font-family="Times,serif" font-size="14.00">SharedModule</text>
</g>
<!-- SharedModule&#45;&gt;NachhilfeGModule -->
<g id="edge2" class="edge">
<title>SharedModule&#45;&gt;NachhilfeGModule</title>
<path fill="none" stroke="black" d="M193.89,-122.11C193.89,-122.11 193.89,-140.99 193.89,-140.99"/>
<polygon fill="black" stroke="black" points="190.39,-140.99 193.89,-150.99 197.39,-140.99 190.39,-140.99"/>
</g>
</g>
</svg>
