<?xml version="1.0" encoding="UTF-8" standalone="no"?>
<!DOCTYPE svg PUBLIC "-//W3C//DTD SVG 1.1//EN"
 "http://www.w3.org/Graphics/SVG/1.1/DTD/svg11.dtd">
<!-- Generated by graphviz version 2.47.0 (20210316.0004)
 -->
<!-- Title: dependencies Pages: 1 -->
<svg width="1460pt" height="284pt"
 viewBox="0.00 0.00 1460.00 284.00" xmlns="http://www.w3.org/2000/svg" xmlns:xlink="http://www.w3.org/1999/xlink">
<g id="graph0" class="graph" transform="scale(1 1) rotate(0) translate(4 280)">
<title>dependencies</title>
<polygon fill="white" stroke="transparent" points="-4,4 -4,-280 1456,-280 1456,4 -4,4"/>
<text text-anchor="start" x="705.01" y="-42.4" font-family="sans-serif" font-weight="bold" font-size="14.00">Legend</text>
<polygon fill="#ffffb3" stroke="transparent" points="492,-10 492,-30 512,-30 512,-10 492,-10"/>
<text text-anchor="start" x="515.63" y="-15.4" font-family="sans-serif" font-size="14.00"> &#160;Declarations</text>
<polygon fill="#8dd3c7" stroke="transparent" points="605,-10 605,-30 625,-30 625,-10 605,-10"/>
<text text-anchor="start" x="628.73" y="-15.4" font-family="sans-serif" font-size="14.00"> &#160;Module</text>
<polygon fill="#80b1d3" stroke="transparent" points="691,-10 691,-30 711,-30 711,-10 691,-10"/>
<text text-anchor="start" x="714.78" y="-15.4" font-family="sans-serif" font-size="14.00"> &#160;Bootstrap</text>
<polygon fill="#fdb462" stroke="transparent" points="788,-10 788,-30 808,-30 808,-10 788,-10"/>
<text text-anchor="start" x="811.67" y="-15.4" font-family="sans-serif" font-size="14.00"> &#160;Providers</text>
<polygon fill="#fb8072" stroke="transparent" points="884,-10 884,-30 904,-30 904,-10 884,-10"/>
<text text-anchor="start" x="907.73" y="-15.4" font-family="sans-serif" font-size="14.00"> &#160;Exports</text>
<g id="clust1" class="cluster">
<title>cluster_AppModule</title>
<polygon fill="none" stroke="black" stroke-dasharray="1,5" points="8,-70 8,-268 1444,-268 1444,-70 8,-70"/>
</g>
<g id="clust7" class="cluster">
<title>cluster_AppModule_providers</title>
<polygon fill="none" stroke="black" points="1136,-78 1136,-130 1436,-130 1436,-78 1136,-78"/>
</g>
<g id="clust6" class="cluster">
<title>cluster_AppModule_bootstrap</title>
<polygon fill="none" stroke="black" points="629,-208 629,-260 753,-260 753,-208 629,-208"/>
</g>
<g id="clust4" class="cluster">
<title>cluster_AppModule_imports</title>
<polygon fill="none" stroke="black" points="146,-78 146,-130 1128,-130 1128,-78 146,-78"/>
</g>
<g id="clust2" class="cluster">
<title>cluster_AppModule_declarations</title>
<polygon fill="none" stroke="black" points="16,-78 16,-130 138,-130 138,-78 16,-78"/>
</g>
<!-- AppComponent -->
<g id="node1" class="node">
<title>AppComponent</title>
<polygon fill="#ffffb3" stroke="black" points="129.94,-122 24.06,-122 24.06,-86 129.94,-86 129.94,-122"/>
<text text-anchor="middle" x="77" y="-99.8" font-family="Times,serif" font-size="14.00">AppComponent</text>
</g>
<!-- AppModule -->
<g id="node2" class="node">
<title>AppModule</title>
<polygon fill="#8dd3c7" stroke="black" points="732.66,-187 729.66,-191 708.66,-191 705.66,-187 649.34,-187 649.34,-151 732.66,-151 732.66,-187"/>
<text text-anchor="middle" x="691" y="-164.8" font-family="Times,serif" font-size="14.00">AppModule</text>
</g>
<!-- AppComponent&#45;&gt;AppModule -->
<g id="edge1" class="edge">
<title>AppComponent&#45;&gt;AppModule</title>
<path fill="none" stroke="black" d="M77,-122.01C77,-144.49 77,-180 77,-180 77,-180 639.28,-180 639.28,-180"/>
<polygon fill="black" stroke="black" points="639.28,-183.5 649.28,-180 639.28,-176.5 639.28,-183.5"/>
</g>
<!-- AppComponent  -->
<g id="node9" class="node">
<title>AppComponent </title>
<polygon fill="#80b1d3" stroke="black" points="745.44,-252 636.56,-252 636.56,-216 745.44,-216 745.44,-252"/>
<text text-anchor="middle" x="691" y="-229.8" font-family="Times,serif" font-size="14.00">AppComponent </text>
</g>
<!-- AppModule&#45;&gt;AppComponent  -->
<g id="edge8" class="edge">
<title>AppModule&#45;&gt;AppComponent </title>
<path fill="none" stroke="black" stroke-dasharray="1,5" d="M691,-187.11C691,-187.11 691,-205.99 691,-205.99"/>
<polygon fill="black" stroke="black" points="687.5,-205.99 691,-215.99 694.5,-205.99 687.5,-205.99"/>
</g>
<!-- BrowserModule -->
<g id="node3" class="node">
<title>BrowserModule</title>
<polygon fill="#8dd3c7" stroke="black" points="1120.47,-122 1117.47,-126 1096.47,-126 1093.47,-122 1013.53,-122 1013.53,-86 1120.47,-86 1120.47,-122"/>
<text text-anchor="middle" x="1067" y="-99.8" font-family="Times,serif" font-size="14.00">BrowserModule</text>
</g>
<!-- BrowserModule&#45;&gt;AppModule -->
<g id="edge2" class="edge">
<title>BrowserModule&#45;&gt;AppModule</title>
<path fill="none" stroke="black" d="M1067,-122.27C1067,-140.56 1067,-166 1067,-166 1067,-166 742.68,-166 742.68,-166"/>
<polygon fill="black" stroke="black" points="742.68,-162.5 732.68,-166 742.68,-169.5 742.68,-162.5"/>
</g>
<!-- AngularFireModule.initializeApp(args) -->
<g id="node4" class="node">
<title>AngularFireModule.initializeApp(args)</title>
<polygon fill="#8dd3c7" stroke="black" points="995.71,-122 992.71,-126 971.71,-126 968.71,-122 758.29,-122 758.29,-86 995.71,-86 995.71,-122"/>
<text text-anchor="middle" x="877" y="-99.8" font-family="Times,serif" font-size="14.00">AngularFireModule.initializeApp(args)</text>
</g>
<!-- AngularFireModule.initializeApp(args)&#45;&gt;AppModule -->
<g id="edge3" class="edge">
<title>AngularFireModule.initializeApp(args)&#45;&gt;AppModule</title>
<path fill="none" stroke="black" d="M877,-122.01C877,-138.05 877,-159 877,-159 877,-159 742.74,-159 742.74,-159"/>
<polygon fill="black" stroke="black" points="742.74,-155.5 732.74,-159 742.74,-162.5 742.74,-155.5"/>
</g>
<!-- SharedModule -->
<g id="node5" class="node">
<title>SharedModule</title>
<polygon fill="#8dd3c7" stroke="black" points="740.42,-122 737.42,-126 716.42,-126 713.42,-122 641.58,-122 641.58,-86 740.42,-86 740.42,-122"/>
<text text-anchor="middle" x="691" y="-99.8" font-family="Times,serif" font-size="14.00">SharedModule</text>
</g>
<!-- SharedModule&#45;&gt;AppModule -->
<g id="edge4" class="edge">
<title>SharedModule&#45;&gt;AppModule</title>
<path fill="none" stroke="black" d="M691,-122.11C691,-122.11 691,-140.99 691,-140.99"/>
<polygon fill="black" stroke="black" points="687.5,-140.99 691,-150.99 694.5,-140.99 687.5,-140.99"/>
</g>
<!-- BrowserAnimationsModule -->
<g id="node6" class="node">
<title>BrowserAnimationsModule</title>
<polygon fill="#8dd3c7" stroke="black" points="624.3,-122 621.3,-126 600.3,-126 597.3,-122 451.7,-122 451.7,-86 624.3,-86 624.3,-122"/>
<text text-anchor="middle" x="538" y="-99.8" font-family="Times,serif" font-size="14.00">BrowserAnimationsModule</text>
</g>
<!-- BrowserAnimationsModule&#45;&gt;AppModule -->
<g id="edge5" class="edge">
<title>BrowserAnimationsModule&#45;&gt;AppModule</title>
<path fill="none" stroke="black" d="M538,-122.01C538,-138.05 538,-159 538,-159 538,-159 639.19,-159 639.19,-159"/>
<polygon fill="black" stroke="black" points="639.19,-162.5 649.19,-159 639.19,-155.5 639.19,-162.5"/>
</g>
<!-- WillkommenModule -->
<g id="node7" class="node">
<title>WillkommenModule</title>
<polygon fill="#8dd3c7" stroke="black" points="433.93,-122 430.93,-126 409.93,-126 406.93,-122 300.07,-122 300.07,-86 433.93,-86 433.93,-122"/>
<text text-anchor="middle" x="367" y="-99.8" font-family="Times,serif" font-size="14.00">WillkommenModule</text>
</g>
<!-- WillkommenModule&#45;&gt;AppModule -->
<g id="edge6" class="edge">
<title>WillkommenModule&#45;&gt;AppModule</title>
<path fill="none" stroke="black" d="M367,-122.27C367,-140.56 367,-166 367,-166 367,-166 639.31,-166 639.31,-166"/>
<polygon fill="black" stroke="black" points="639.31,-169.5 649.31,-166 639.31,-162.5 639.31,-169.5"/>
</g>
<!-- AppRoutingModule -->
<g id="node8" class="node">
<title>AppRoutingModule</title>
<polygon fill="#8dd3c7" stroke="black" points="282.27,-122 279.27,-126 258.27,-126 255.27,-122 153.73,-122 153.73,-86 282.27,-86 282.27,-122"/>
<text text-anchor="middle" x="218" y="-99.8" font-family="Times,serif" font-size="14.00">AppRoutingModule</text>
</g>
<!-- AppRoutingModule&#45;&gt;AppModule -->
<g id="edge7" class="edge">
<title>AppRoutingModule&#45;&gt;AppModule</title>
<path fill="none" stroke="black" d="M218,-122.13C218,-142.57 218,-173 218,-173 218,-173 639.02,-173 639.02,-173"/>
<polygon fill="black" stroke="black" points="639.02,-176.5 649.02,-173 639.02,-169.5 639.02,-176.5"/>
</g>
<!-- AngularFireAuthGuard -->
<g id="node10" class="node">
<title>AngularFireAuthGuard</title>
<ellipse fill="#fdb462" stroke="black" cx="1326" cy="-104" rx="101.85" ry="18"/>
<text text-anchor="middle" x="1326" y="-99.8" font-family="Times,serif" font-size="14.00">AngularFireAuthGuard</text>
</g>
<!-- AngularFireAuthGuard&#45;&gt;AppModule -->
<g id="edge9" class="edge">
<title>AngularFireAuthGuard&#45;&gt;AppModule</title>
<path fill="none" stroke="black" d="M1326,-122.01C1326,-144.49 1326,-180 1326,-180 1326,-180 742.66,-180 742.66,-180"/>
<polygon fill="black" stroke="black" points="742.66,-176.5 732.66,-180 742.66,-183.5 742.66,-176.5"/>
</g>
<!-- ...??? -->
<g id="node11" class="node">
<title>...???</title>
<ellipse fill="#fdb462" stroke="black" cx="1175" cy="-104" rx="31.28" ry="18"/>
<text text-anchor="middle" x="1175" y="-99.8" font-family="Times,serif" font-size="14.00">...???</text>
</g>
<!-- ...???&#45;&gt;AppModule -->
<g id="edge10" class="edge">
<title>...???&#45;&gt;AppModule</title>
<path fill="none" stroke="black" d="M1175,-122.13C1175,-142.57 1175,-173 1175,-173 1175,-173 742.68,-173 742.68,-173"/>
<polygon fill="black" stroke="black" points="742.68,-169.5 732.68,-173 742.68,-176.5 742.68,-169.5"/>
</g>
</g>
</svg>
