<?xml version="1.0" encoding="UTF-8" standalone="no"?>
<!-- Created with Inkscape (http://www.inkscape.org/) -->

<svg
   xmlns:dc="http://purl.org/dc/elements/1.1/"
   xmlns:cc="http://creativecommons.org/ns#"
   xmlns:rdf="http://www.w3.org/1999/02/22-rdf-syntax-ns#"
   xmlns:svg="http://www.w3.org/2000/svg"
   xmlns="http://www.w3.org/2000/svg"
   xmlns:sodipodi="http://sodipodi.sourceforge.net/DTD/sodipodi-0.dtd"
   xmlns:inkscape="http://www.inkscape.org/namespaces/inkscape"
   version="1.1"
   id="svg30"
   width="1204"
   height="720"
   viewBox="0 0 1204 720"
   sodipodi:docname="favicon.svg"
   inkscape:version="0.92.3 (2405546, 2018-03-11)">
  <metadata
     id="metadata36">
    <rdf:RDF>
      <cc:Work
         rdf:about="">
        <dc:format>image/svg+xml</dc:format>
        <dc:type
           rdf:resource="http://purl.org/dc/dcmitype/StillImage" />
        <dc:title></dc:title>
      </cc:Work>
    </rdf:RDF>
  </metadata>
  <defs
     id="defs34" />
  <sodipodi:namedview
     pagecolor="#ffffff"
     bordercolor="#666666"
     borderopacity="1"
     objecttolerance="10"
     gridtolerance="10"
     guidetolerance="10"
     inkscape:pageopacity="0"
     inkscape:pageshadow="2"
     inkscape:window-width="1920"
     inkscape:window-height="1017"
     id="namedview32"
     showgrid="false"
     inkscape:zoom="1.1777778"
     inkscape:cx="602"
     inkscape:cy="360"
     inkscape:window-x="-8"
     inkscape:window-y="-8"
     inkscape:window-maximized="1"
     inkscape:current-layer="svg30" />
  <path
     style="fill:#000000"
     d="M 714.07006,571.0345 C 702.08195,566.59202 694.39783,556.3889 688.43815,537 c -7.86458,-25.5862 -10.71147,-33.91994 -22.88784,-67 -15.45706,-41.99284 -19.84174,-52.53723 -33.05851,-79.5 -10.89931,-22.23506 -13.14376,-28.655 -11.51535,-32.93806 1.20607,-3.17219 4.04865,-3.32758 8.66626,-0.47374 3.46236,2.13985 19.64859,23.1415 33.84338,43.9118 7.88851,11.54273 17.1096,29.57338 26.08201,51 5.51731,13.17564 37.75137,77.59055 40.15816,80.25002 1.47154,1.62602 1.73935,1.63858 3.37505,0.15829 0.97718,-0.88433 3.86345,-8.20047 6.41394,-16.25809 15.51132,-49.00406 19.38303,-59.59007 30.22834,-82.65022 20.50101,-43.59087 48.52253,-81.27079 91.54152,-123.09386 38.45751,-37.3884 67.30903,-59.63632 95.21489,-73.42191 18.66616,-9.22115 35.57594,-13.95166 33.85671,-9.47143 -0.31928,0.83205 -6.71766,6.38689 -14.21861,12.34411 -18.97279,15.06809 -29.47713,25.28041 -51.56592,50.13244 -48.06345,54.07605 -61.93428,72.03637 -94.96034,122.95722 -33.28584,51.32138 -40.39715,65.95524 -55.18121,113.55343 -7.20608,23.20042 -13.13122,35.59911 -19.20589,40.18938 -5.90772,4.46412 -9.86725,5.45526 -23.72474,5.93869 -10.23956,0.35722 -12.79659,0.12344 -17.42994,-1.59357 z M 479.5,569.35067 c -14.63596,-1.14572 -33.28503,-6.2091 -45.5129,-12.35716 C 402.31187,541.06752 373.38441,510.03087 349.64332,466.5 335.77514,441.07175 324.27621,409 329.0274,409 c 0.56507,0 5.90957,4.62436 11.87665,10.27636 5.96709,5.65199 15.45713,13.63949 21.08897,17.75 5.63184,4.1105 16.59985,12.20992 24.37335,17.9987 21.62894,16.10669 26.47497,19.3789 35.13363,23.72339 17.88636,8.97451 35.72765,12.3325 55.09268,10.36924 40.58323,-4.11441 62.77406,-23.93205 59.34668,-52.99991 -1.35448,-11.48748 -7.05863,-18.65345 -15.77932,-19.82314 -3.21516,-0.43124 -5.64563,0.24389 -12.88774,3.57993 -4.90893,2.26127 -11.31481,4.56455 -14.2353,5.11841 -12.52001,2.37437 -30.15977,0.52224 -46.79255,-4.9131 C 411.30231,408.66132 382.87674,381.38209 361.2364,338.5 c -15.71432,-31.1392 -23.90636,-62.66003 -24.94971,-96 -0.6062,-19.37072 0.66695,-28.74007 5.85277,-43.07179 8.95291,-24.74257 34.71014,-52.36383 61.90353,-66.38345 17.57247,-9.05953 33.75116,-13.18973 51.45701,-13.13627 14.29948,0.0432 21.92473,2.15975 40,11.103 23.28698,11.52189 36.66279,23.20869 44.0484,38.48627 4.3801,9.06051 8.27681,21.01036 7.20179,22.08539 -1.11889,1.11889 -4.94351,-1.80251 -17.8335,-13.62195 -15.5771,-14.28339 -20.32648,-17.67599 -28.15659,-20.113 -10.6453,-3.31319 -35.96407,-1.99581 -52.63631,2.73876 -20.67216,5.87046 -43.92161,21.25059 -57.12379,37.78891 -11.59922,14.53029 -22.7717,36.21715 -25.56858,49.63104 -4.18417,20.06737 8.54761,41.52754 37.84742,63.79406 12.66159,9.62224 30.94033,16.66448 46.33456,17.85131 10.76833,0.83019 16.34925,-0.91343 43.67408,-13.64488 23.65428,-11.02123 31.49296,-13.56201 38.59972,-12.51145 16.30498,2.41029 38.95175,17.44951 53.98909,35.85297 17.01253,20.8208 28.59164,44.64512 34.33786,70.65108 2.869,12.98435 3.11814,41.30334 0.47806,54.33927 -12.16653,60.07483 -56.76819,99.05678 -119.71073,104.62746 -11.20931,0.99208 -13.2475,1.0285 -21.48148,0.38394 z m 12.64466,-148.3148 c 8.45509,-2.61305 14.95392,-6.87212 23.05683,-15.11048 13.69808,-13.92708 24.76554,-31.77676 29.17223,-47.04918 4.64712,-16.10572 5.29178,-34.80299 1.45771,-42.27862 -1.61478,-3.14848 -5.98785,-7.59665 -9.03177,-9.18687 -7.08948,-3.70371 -14.58356,-1.47878 -43.12699,12.80407 -22.36551,11.19147 -29.66961,13.23982 -44.61743,12.51242 -17.81485,-0.86691 -31.9376,-5.8 -46.55524,-16.26178 -20.0497,-14.34948 -45.22255,-50.72475 -55.52979,-80.24164 -3.55138,-10.17012 -5.11086,-12.87293 -6.81851,-11.81755 -1.40627,0.86913 -1.45758,8.26855 -0.16359,23.59376 3.10836,36.81355 8.24355,57.19613 20.65908,82 26.11759,52.17798 58.04306,81.7571 98.29372,91.06965 10.6516,2.4644 25.16817,2.44963 33.20375,-0.0338 z m -33.41019,-120.0654 c -9.04743,-2.27216 -17.52882,-8.91216 -21.94298,-17.17898 C 434.8417,280.13994 434.5,278.00882 434.5,269.5 c 0,-8.51109 0.34145,-10.6395 2.29331,-14.29506 3.53466,-6.61993 8.82968,-11.87237 15.04615,-14.92516 4.86285,-2.38805 6.85836,-2.77609 14.16054,-2.75358 7.73697,0.0239 9.06787,0.33175 14.82601,3.42984 11.99489,6.45371 17.71382,16.59917 16.93557,30.04396 -0.72539,12.53168 -7.42451,22.66726 -18.261,27.62837 -5.87388,2.68915 -15.19717,3.74067 -20.76611,2.3421 z"
     id="path40"
     inkscape:connector-curvature="0"
     inkscape:export-filename="C:\Users\Thorben\Desktop\LogoV1.png"
     inkscape:export-xdpi="96"
     inkscape:export-ydpi="96" />
</svg>
